<?xml version="1.0" encoding="utf-8"?>
<!-- Generator: Adobe Illustrator 15.1.0, SVG Export Plug-In . SVG Version: 6.00 Build 0)  -->
<!DOCTYPE svg PUBLIC "-//W3C//DTD SVG 1.1//EN" "http://www.w3.org/Graphics/SVG/1.1/DTD/svg11.dtd">
<svg version="1.1" id="Ebene_1" xmlns:ev="http://www.w3.org/2001/xml-events"
	 xmlns="http://www.w3.org/2000/svg" xmlns:xlink="http://www.w3.org/1999/xlink" x="0px" y="0px" width="290px" height="290px"
	 viewBox="10 10 290 290" enable-background="new 10 10 290 290" xml:space="preserve">
<polygon fill="#FFFFFF" points="270,130 270,120 260,120 260,140 280,140 280,130 "/>
<rect x="290" y="120" fill="#FFFFFF" width="10" height="10"/>
<polygon fill="#FFFFFF" points="190,200 180,200 180,190 170,190 170,180 160,180 160,200 170,200 170,210 180,210 180,220 190,220 
	"/>
<rect x="290" y="270" fill="#FFFFFF" width="10" height="10"/>
<rect x="270" y="110" fill="#FFFFFF" width="20" height="10"/>
<polygon fill="#FFFFFF" points="220,190 220,180 210,180 210,200 230,200 230,190 "/>
<rect x="220" y="170" fill="#FFFFFF" width="10" height="10"/>
<polygon fill="#FFFFFF" points="260,180 260,170 240,170 240,190 250,190 250,180 "/>
<polygon fill="#FFFFFF" points="300,90 280,90 280,100 290,100 290,110 300,110 "/>
<rect x="280" y="280" fill="#FFFFFF" width="10" height="20"/>
<rect x="60" y="210" fill="#FFFFFF" width="20" height="10"/>
<rect x="70" y="130" fill="#FFFFFF" width="10" height="10"/>
<path fill="#FFFFFF" d="M80,200v-10H60v-10h20v-10H60v-40H50v10H40v20h10v10H30v30h20v10h10v-10H80z M50,190H40v-10h10V190z"/>
<rect x="280" y="260" fill="#FFFFFF" width="10" height="10"/>
<rect x="80" y="200" fill="#FFFFFF" width="10" height="10"/>
<polygon fill="#FFFFFF" points="190,290 190,300 240,300 240,290 230,290 230,280 210,280 210,290 "/>
<rect x="270" y="250" fill="#FFFFFF" width="10" height="10"/>
<rect x="230" y="230" fill="#FFFFFF" width="10" height="10"/>
<path fill="#FFFFFF" d="M190,240h20v20h-10v10h-10v10h20v-10h20v-10h10v20h10v-10h10v-30h10v-10h10v20h10v-20h10v-10h-20v-30h10v-30
	h10v-20h-20v10h-20v10h20v20h-10v10h-20v10h20v10h-30v-10h-10v10h-20v20h-10v-10h-10v10h-10v10h-10v10h10v20h10V240z M220,220h30v30
	h-30V220z"/>
<polygon fill="#FFFFFF" points="90,280 110,280 110,300 120,300 120,290 150,290 150,300 160,300 160,290 170,290 170,300 180,300 
	180,270 170,270 170,280 160,280 160,250 150,250 150,260 140,260 140,280 130,280 130,270 110,270 110,260 90,260 "/>
<path fill="#FFFFFF" d="M80,10H10v70h70V10z M70,70H20V20h50V70z"/>
<path fill="#FFFFFF" d="M300,10h-70v70h70V10z M290,70h-50V20h50V70z"/>
<rect x="90" y="40" fill="#FFFFFF" width="10" height="10"/>
<rect x="190" y="190" fill="#FFFFFF" width="10" height="10"/>
<rect x="30" y="30" fill="#FFFFFF" width="30" height="30"/>
<rect x="250" y="30" fill="#FFFFFF" width="30" height="30"/>
<rect x="90" y="290" fill="#FFFFFF" width="10" height="10"/>
<rect x="250" y="290" fill="#FFFFFF" width="10" height="10"/>
<rect x="260" y="280" fill="#FFFFFF" width="10" height="10"/>
<rect x="100" y="60" fill="#FFFFFF" width="10" height="10"/>
<rect x="130" y="250" fill="#FFFFFF" width="10" height="10"/>
<rect x="130" y="180" fill="#FFFFFF" width="20" height="10"/>
<rect x="170" y="220" fill="#FFFFFF" width="10" height="10"/>
<rect x="170" y="170" fill="#FFFFFF" width="20" height="10"/>
<rect x="210" y="30" fill="#FFFFFF" width="10" height="10"/>
<rect x="260" y="90" fill="#FFFFFF" width="10" height="10"/>
<polygon fill="#FFFFFF" points="250,160 250,150 240,150 240,140 230,140 230,150 220,150 220,160 "/>
<polygon fill="#FFFFFF" points="260,100 240,100 240,90 230,90 230,110 260,110 "/>
<rect x="130" y="70" fill="#FFFFFF" width="10" height="10"/>
<rect x="120" y="170" fill="#FFFFFF" width="10" height="10"/>
<rect x="130" y="160" fill="#FFFFFF" width="20" height="10"/>
<rect x="240" y="120" fill="#FFFFFF" width="10" height="10"/>
<polygon fill="#FFFFFF" points="20,170 30,170 30,160 20,160 20,150 30,150 30,140 40,140 40,130 20,130 20,120 10,120 10,180 
	20,180 "/>
<polygon fill="#FFFFFF" points="210,80 200,80 200,110 210,110 210,130 230,130 230,110 220,110 220,100 210,100 210,90 220,90 
	220,60 210,60 210,40 200,40 200,20 220,20 220,10 170,10 170,20 180,20 180,30 190,30 190,40 180,40 180,50 170,50 170,40 180,40 
	180,30 140,30 140,40 130,40 130,60 140,60 140,50 160,50 160,60 190,60 190,50 200,50 200,70 210,70 "/>
<rect x="90" y="70" fill="#FFFFFF" width="10" height="20"/>
<path fill="#FFFFFF" d="M60,110v20h10v-10h10v-10H70v-10h10v10h10v10H80v10h10v20H70v10h20v20H80v10h10v10h10v20H90v30h20v10h10v-20
	h-20v-10h20v10h10v-10h10v10h10v-10h10v-10h-10v-10h-10v10h-10v-10h-10v10h-10v-10h10v-10h10v-10h-10v-10h-20v-10h20v-20h30v10h10
	v-10h10v10h10v-10h20v10h10v-10h10v-10h-10v-10h-10v-20h-10v10h-10v10h10v10h-20v-10h-10v10h-20v-10h20v-10h-10v-10h-10v10h-20v10
	h-20v-10h10v-20H90V90H60v10H50v10H60z M100,140h10v20h-10V140z"/>
<polygon fill="#FFFFFF" points="120,100 120,110 140,110 140,100 130,100 130,80 120,80 120,70 110,70 110,100 "/>
<polygon fill="#FFFFFF" points="140,30 140,10 120,10 120,20 100,20 100,10 90,10 90,30 100,30 100,40 110,40 110,30 120,30 120,40 
	130,40 130,30 "/>
<rect x="40" y="110" fill="#FFFFFF" width="10" height="10"/>
<polygon fill="#FFFFFF" points="30,110 40,110 40,100 50,100 50,90 30,90 30,100 20,100 20,90 10,90 10,110 20,110 20,120 30,120 
	"/>
<polygon fill="#FFFFFF" points="190,110 190,80 180,80 180,70 170,70 170,90 160,90 160,70 150,70 150,100 170,100 170,120 180,120 
	180,110 "/>
<path fill="#FFFFFF" d="M80,230H10v70h70V230z M70,290H20v-50h50V290z"/>
<rect x="20" y="210" fill="#FFFFFF" width="20" height="10"/>
<rect x="190" y="70" fill="#FFFFFF" width="10" height="10"/>
<rect x="30" y="250" fill="#FFFFFF" width="30" height="30"/>
<rect x="10" y="190" fill="#FFFFFF" width="10" height="10"/>
</svg>
