<?xml version="1.0" encoding="utf-8"?>
<!-- Generator: Adobe Illustrator 15.1.0, SVG Export Plug-In . SVG Version: 6.00 Build 0)  -->
<!DOCTYPE svg PUBLIC "-//W3C//DTD SVG 1.1//EN" "http://www.w3.org/Graphics/SVG/1.1/DTD/svg11.dtd">
<svg version="1.1"
	 id="svg2" sodipodi:version="0.32" inkscape:version="0.47 r22583" sodipodi:docname="blogger.svg" xmlns:dc="http://purl.org/dc/elements/1.1/" xmlns:cc="http://creativecommons.org/ns#" xmlns:rdf="http://www.w3.org/1999/02/22-rdf-syntax-ns#" xmlns:svg="http://www.w3.org/2000/svg" xmlns:inkscape="http://www.inkscape.org/namespaces/inkscape" xmlns:sodipodi="http://sodipodi.sourceforge.net/DTD/sodipodi-0.dtd" inkscape:output_extension="org.inkscape.output.svg.inkscape"
	 xmlns="http://www.w3.org/2000/svg" xmlns:xlink="http://www.w3.org/1999/xlink" x="0px" y="0px" width="235.008px"
	 height="234.989px" viewBox="10.496 10.505 235.008 234.989" enable-background="new 10.496 10.505 235.008 234.989"
	 xml:space="preserve">
<sodipodi:namedview  id="base" inkscape:pageshadow="2" inkscape:pageopacity="0.0" inkscape:cy="122.62969" inkscape:cx="150.19857" inkscape:zoom="0.24748737" showgrid="false" pagecolor="#ffffff" bordercolor="#666666" borderopacity="1.0" inkscape:window-maximized="0" inkscape:window-y="281" inkscape:window-x="1" inkscape:window-height="674" inkscape:window-width="782" inkscape:current-layer="layer1" inkscape:document-units="px">
	</sodipodi:namedview>
<g id="layer1" transform="translate(-373.642,-318.344)" inkscape:label="Layer 1" inkscape:groupmode="layer">
	
		<path id="rect1942" inkscape:export-filename="C:\Documents and Settings\Molumen\Desktop\path3511111.png" inkscape:export-xdpi="7.7063322" inkscape:export-ydpi="7.7063322" fill="#F57D00" d="
		M583.659,328.849H419.625c-19.599,0-35.487,15.888-35.487,35.487v164.015c0,19.599,15.888,35.486,35.487,35.486h164.033
		c19.599,0,35.487-15.888,35.487-35.486V364.337C619.146,344.738,603.257,328.849,583.659,328.849z"/>
	
		<linearGradient id="path1950_1_" gradientUnits="userSpaceOnUse" x1="-210.9386" y1="-272.8665" x2="-262.635" y2="-423.5554" gradientTransform="matrix(-0.5915 0 0 -0.5915 319.1107 132.928)">
		<stop  offset="0" style="stop-color:#FFFFFF"/>
		<stop  offset="1" style="stop-color:#FFFFFF;stop-opacity:0"/>
	</linearGradient>
	
		<path id="path1950" inkscape:export-filename="C:\Documents and Settings\Molumen\Desktop\path3511111.png" inkscape:export-xdpi="7.7063322" inkscape:export-ydpi="7.7063322" sodipodi:nodetypes="ccccsssc" fill="url(#path1950_1_)" d="
		M557.056,338.895H446.227c-29.337,0-52.955,23.81-52.955,53.385v108.127c0.95,23.087,4.603,8.491,11.555-17.075
		c8.081-29.713,34.396-55.682,66.445-75.145c24.461-14.855,51.84-24.341,101.679-25.244
		C601.216,382.432,598.721,346.26,557.056,338.895z"/>
	<path id="path3778" sodipodi:nodetypes="ccccccc" fill="#FFFFFF" stroke="#FFFFFF" stroke-width="30" d="M474.288,392.94
		l34.103-0.525c15.616,0.432,24.295,11.501,24.134,24.13c1.514,14.923-2.688,31.821-26.232,31.475h-33.578
		c-14.805,0.143-26.626-8.558-25.708-25.705C446.273,408.11,450.964,392.735,474.288,392.94z"/>
	<path id="path3780" sodipodi:nodetypes="ccccccc" fill="#FFFFFF" stroke="#FFFFFF" stroke-width="30" d="M529.376,508.344h-52.464
		c-21.862,0.281-32.393-9.686-30.955-32.522c0.103-20.528,12.011-26.39,29.905-26.753h51.941
		c35.317-0.943,31.46-1.285,32.004,27.277C559.585,497.112,548.165,508.186,529.376,508.344z"/>
	<path id="path3782" sodipodi:nodetypes="cc" fill="none" stroke="#FFFFFF" stroke-width="30" d="M445.957,480.018l1.049-62.948"/>
	<path id="path3786" sodipodi:nodetypes="cc" fill="none" stroke="#F57D00" stroke-width="25" stroke-linecap="round" d="
		M476.783,419.906l29.291,0.465"/>
	<path id="path3788" sodipodi:nodetypes="cc" fill="none" stroke="#F57D00" stroke-width="25" stroke-linecap="round" d="
		M473.455,477.187h58.582"/>
</g>
</svg>
