<?xml version="1.0" encoding="utf-8"?>
<!-- Generator: Adobe Illustrator 15.1.0, SVG Export Plug-In . SVG Version: 6.00 Build 0)  -->
<!DOCTYPE svg PUBLIC "-//W3C//DTD SVG 1.1//EN" "http://www.w3.org/Graphics/SVG/1.1/DTD/svg11.dtd">
<svg version="1.1" id="Ebene_1" xmlns="http://www.w3.org/2000/svg" xmlns:xlink="http://www.w3.org/1999/xlink" x="0px" y="0px"
	 width="100px" height="100px" viewBox="0 0 100 100" enable-background="new 0 0 100 100" xml:space="preserve">
<title>Druplicon</title>
<g>
	<path fill="#00598E" d="M71.781,18.602c-5.105-3.179-9.922-4.431-14.738-7.61c-2.986-2.023-7.128-6.839-10.596-10.981
		c-0.674,6.646-2.697,9.344-5.009,11.271c-4.913,3.853-7.996,5.009-12.234,7.321c-3.564,1.831-22.926,13.39-22.926,38.243
		C6.277,81.698,27.18,100,50.396,100s43.348-16.857,43.348-42.385C93.744,32.089,74.864,20.529,71.781,18.602z"/>
	<path fill="#FFFFFF" d="M63.957,78.412c1.541,0,3.179,0.097,4.334,0.867c1.156,0.771,1.831,2.504,2.216,3.468s0,1.542-0.771,1.927
		c-0.674,0.385-0.771,0.192-1.445-1.06c-0.674-1.252-1.252-2.505-4.624-2.505s-4.431,1.156-6.069,2.505
		c-1.638,1.348-2.215,1.83-2.793,1.06c-0.578-0.771-0.385-1.542,0.674-2.505s2.793-2.504,4.431-3.179S62.415,78.412,63.957,78.412
		L63.957,78.412z"/>
	<path fill="#FFFFFF" d="M47.966,89.393c1.927,1.542,4.816,2.794,10.981,2.794s10.5-1.734,12.426-3.179
		c0.867-0.674,1.252-0.096,1.349,0.289c0.097,0.385,0.289,0.963-0.385,1.638c-0.481,0.481-4.913,3.564-10.114,4.046
		c-5.202,0.481-12.234,0.771-16.472-3.083c-0.674-0.674-0.482-1.638,0-2.023c0.481-0.385,0.867-0.674,1.445-0.674
		C47.773,89.201,47.677,89.201,47.966,89.393L47.966,89.393z"/>
	<path fill="#0073BA" d="M24.365,82.073c7.321-0.096,8.669-1.349,15.124-4.238C74.36,62.229,80.814,47.972,82.067,44.697
		c1.252-3.275,3.083-8.573,1.156-14.45c-0.372-1.134-0.643-2.045-0.838-2.778c-4.634-5.182-9.235-8.009-10.625-8.878
		c-5.009-3.179-9.922-4.431-14.739-7.61C54.035,9.055,49.893,4.142,46.425,0c-0.674,6.646-2.601,9.44-5.009,11.271
		c-4.913,3.853-7.996,5.009-12.234,7.321c-3.564,1.927-22.926,13.39-22.926,38.243c0,7.935,2.131,15.202,5.788,21.419l0.955-0.034
		C15.022,80.05,18.2,82.169,24.365,82.073z"/>
	<path fill="#004975" d="M71.76,18.592c-5.009-3.179-9.922-4.431-14.739-7.61C54.035,9.055,49.893,4.142,46.425,0
		c-0.674,6.646-2.601,9.44-5.009,11.271c-4.913,3.853-7.996,5.009-12.234,7.321c-3.564,1.927-22.926,13.39-22.926,38.243
		c0,7.935,2.131,15.202,5.788,21.419C19.84,91.509,34.571,99.99,50.374,99.99c23.215,0,43.348-16.857,43.348-42.385
		c0-14.019-5.694-23.824-11.338-30.135C77.75,22.288,73.149,19.46,71.76,18.592z M83.469,29.868C89.793,37.775,93,47.107,93,57.605
		c0,6.092-1.16,11.846-3.448,17.104c-2.17,4.987-5.296,9.406-9.291,13.133c-7.895,7.368-18.509,11.426-29.887,11.426
		c-5.629,0-11.152-1.075-16.417-3.196c-5.171-2.083-9.832-5.065-13.851-8.865C11.64,79.205,6.978,68.419,6.978,56.834
		c0-10.318,3.349-19.487,9.954-27.25c5.046-5.931,10.488-9.218,12.593-10.356c1.022-0.558,1.981-1.05,2.908-1.525
		c2.906-1.492,5.652-2.901,9.428-5.863c2.014-1.53,4.159-3.954,5.072-10.108c3.182,3.785,6.874,8.038,9.696,9.858
		c2.504,1.653,5.073,2.812,7.558,3.932c2.35,1.06,4.78,2.155,7.185,3.682c0.004,0.002,0.09,0.056,0.09,0.056
		C78.492,23.647,82.238,28.329,83.469,29.868z"/>
	<path fill="#93C5E4" d="M46.906,1.927c1.349,3.949,1.156,5.972,1.156,6.839c0,0.867-0.481,3.179-2.023,4.334
		c-0.674,0.482-0.867,0.867-0.867,0.963c0,0.385,0.867,0.674,0.867,1.542c0,1.06-0.481,3.179-5.587,8.284
		s-12.426,9.633-18.11,12.426s-8.38,2.601-9.151,1.252c-0.771-1.349,0.289-4.335,3.854-8.284c3.564-3.95,14.834-9.633,14.834-9.633
		l14.064-9.825l0.771-3.757"/>
	<path fill="#FFFFFF" d="M46.906,1.83c-0.867,6.358-2.793,8.285-5.395,10.307c-4.335,3.275-8.573,5.298-9.537,5.78
		c-2.504,1.252-11.56,6.262-16.279,13.486c-1.445,2.215,0,3.083,0.289,3.275c0.289,0.193,3.564,0.578,10.596-3.66
		c7.032-4.239,10.115-6.743,14.064-10.885c2.119-2.216,2.408-3.468,2.408-4.046c0-0.674-0.482-0.963-1.252-1.156
		c-0.385-0.097-0.481-0.289,0-0.578s2.504-1.252,2.986-1.638c0.481-0.385,2.793-1.926,2.89-4.431
		C47.773,5.78,47.581,4.046,46.906,1.83L46.906,1.83z"/>
	<path fill="#FFFFFF" d="M25.232,71.862c0.097-7.514,7.128-14.545,15.991-14.642c11.271-0.096,19.073,11.174,24.757,11.078
		c4.816-0.097,14.064-9.537,18.591-9.537c4.816,0,6.165,5.009,6.165,7.995s-0.963,8.381-3.275,11.752
		c-2.312,3.371-3.757,4.624-6.454,4.431c-3.468-0.289-10.404-11.078-14.835-11.271c-5.587-0.193-17.725,11.656-27.261,11.656
		c-5.78,0-7.514-0.867-9.44-2.12C26.581,79.183,25.136,76.1,25.232,71.862L25.232,71.862z"/>
	<path fill="none" d="M83.222,30.247c1.927,5.876,0.096,11.174-1.156,14.45c-1.252,3.275-7.707,17.532-42.578,33.137
		c-6.454,2.89-7.803,4.142-15.124,4.238c-6.165,0.096-9.344-2.023-11.367-3.853l-0.955,0.034
		C19.84,91.509,34.571,99.99,50.374,99.99c23.215,0,43.348-16.857,43.348-42.385c0-14.019-5.694-23.824-11.338-30.135
		C82.579,28.202,82.85,29.113,83.222,30.247z"/>
</g>
</svg>
