<?xml version="1.0" encoding="utf-8"?>
<!-- Generator: Adobe Illustrator 15.1.0, SVG Export Plug-In . SVG Version: 6.00 Build 0)  -->
<!DOCTYPE svg PUBLIC "-//W3C//DTD SVG 1.1//EN" "http://www.w3.org/Graphics/SVG/1.1/DTD/svg11.dtd">
<svg version="1.1"
	 id="svg2" sodipodi:version="0.32" inkscape:version="0.47 r22583" sodipodi:docname="tumblr.svg" xmlns:dc="http://purl.org/dc/elements/1.1/" xmlns:cc="http://creativecommons.org/ns#" xmlns:rdf="http://www.w3.org/1999/02/22-rdf-syntax-ns#" xmlns:svg="http://www.w3.org/2000/svg" xmlns:inkscape="http://www.inkscape.org/namespaces/inkscape" xmlns:sodipodi="http://sodipodi.sourceforge.net/DTD/sodipodi-0.dtd" inkscape:output_extension="org.inkscape.output.svg.inkscape"
	 xmlns="http://www.w3.org/2000/svg" xmlns:xlink="http://www.w3.org/1999/xlink" x="0px" y="0px" width="235.008px"
	 height="234.989px" viewBox="10.496 10.505 235.008 234.989" enable-background="new 10.496 10.505 235.008 234.989"
	 xml:space="preserve">
<sodipodi:namedview  id="base" inkscape:pageshadow="2" inkscape:pageopacity="0.0" inkscape:cy="140.0725" inkscape:cx="217.05008" inkscape:zoom="0.98994949" showgrid="false" pagecolor="#ffffff" bordercolor="#666666" borderopacity="1.0" inkscape:window-maximized="0" inkscape:window-y="309" inkscape:window-x="5" inkscape:window-height="674" inkscape:window-width="828" inkscape:current-layer="layer1" inkscape:document-units="px">
	</sodipodi:namedview>
<g id="layer1" transform="translate(-373.642,-318.344)" inkscape:label="Layer 1" inkscape:groupmode="layer">
	
		<path id="rect1942" inkscape:export-filename="C:\Documents and Settings\Molumen\Desktop\path3511111.png" inkscape:export-xdpi="7.7063322" inkscape:export-ydpi="7.7063322" fill="#4E83B7" d="
		M583.659,328.849H419.625c-19.599,0-35.487,15.888-35.487,35.487v164.015c0,19.599,15.888,35.486,35.487,35.486h164.033
		c19.599,0,35.487-15.888,35.487-35.486V364.337C619.146,344.738,603.257,328.849,583.659,328.849z"/>
	
		<linearGradient id="path1950_1_" gradientUnits="userSpaceOnUse" x1="-210.9386" y1="-272.8665" x2="-262.635" y2="-423.5554" gradientTransform="matrix(-0.5915 0 0 -0.5915 319.1107 132.928)">
		<stop  offset="0" style="stop-color:#FFFFFF"/>
		<stop  offset="1" style="stop-color:#FFFFFF;stop-opacity:0"/>
	</linearGradient>
	
		<path id="path1950" inkscape:export-filename="C:\Documents and Settings\Molumen\Desktop\path3511111.png" inkscape:export-xdpi="7.7063322" inkscape:export-ydpi="7.7063322" sodipodi:nodetypes="ccccsssc" opacity="0.5536" fill="url(#path1950_1_)" enable-background="new    " d="
		M557.056,338.895H446.227c-29.337,0-52.955,23.81-52.955,53.385v108.127c0.95,23.087,4.603,8.491,11.555-17.075
		c8.081-29.713,34.396-55.682,66.445-75.145c24.461-14.855,51.84-24.341,101.679-25.244
		C601.216,382.432,598.721,346.26,557.056,338.895z"/>
	<path id="path26453" sodipodi:nodetypes="ccccccccccccccc" fill="#FFFFFF" d="M447.888,410.194
		c19.516-1.275,37.147-5.716,35.86-38.891l18.688-0.505l-1.011,38.891h46.468v30.81l-46.468-0.505l0.505,45.961
		c5.312,30.328,34.926,19.813,45.962,9.092v25.759c-8.576,6.808-25.545,11.938-39.396,12.627
		c-23.826-2.56-44.26-10.308-45.457-47.478v-45.457h-15.152V410.194L447.888,410.194z"/>
</g>
</svg>
