<?xml version="1.0" encoding="utf-8"?>
<!-- Generator: Adobe Illustrator 15.1.0, SVG Export Plug-In . SVG Version: 6.00 Build 0)  -->
<!DOCTYPE svg PUBLIC "-//W3C//DTD SVG 1.1//EN" "http://www.w3.org/Graphics/SVG/1.1/DTD/svg11.dtd">
<svg version="1.1"
	 id="svg7592" xmlns:dc="http://purl.org/dc/elements/1.1/" xmlns:cc="http://creativecommons.org/ns#" xmlns:rdf="http://www.w3.org/1999/02/22-rdf-syntax-ns#" xmlns:svg="http://www.w3.org/2000/svg"
	 xmlns="http://www.w3.org/2000/svg" xmlns:xlink="http://www.w3.org/1999/xlink" x="0px" y="0px" width="100px" height="100px"
	 viewBox="190.509 50.227 100 100" enable-background="new 190.509 50.227 100 100" xml:space="preserve">
<g>
	<path id="path5775" fill="#FF8700" d="M265.84,119.142c-1.484,0.438-2.667,0.588-4.216,0.588c-12.697,0-31.347-44.372-31.347-59.14
		c0-5.44,1.291-7.253,3.107-8.808c-15.542,1.813-34.196,7.514-40.157,14.767c-1.294,1.814-2.071,4.664-2.071,8.289
		c0,23.059,24.611,75.388,41.971,75.388C241.156,150.227,254.7,137.015,265.84,119.142"/>
	<path id="path5779" fill="#FF8700" d="M257.735,50.227c16.062,0,32.127,2.591,32.127,11.658c0,18.395-11.658,40.675-17.618,40.675
		c-10.62,0-23.833-29.532-23.833-44.301C248.411,51.523,251.002,50.227,257.735,50.227"/>
</g>
</svg>
