<?xml version="1.0" encoding="utf-8"?>
<!-- Generator: Adobe Illustrator 15.1.0, SVG Export Plug-In . SVG Version: 6.00 Build 0)  -->
<!DOCTYPE svg PUBLIC "-//W3C//DTD SVG 1.1//EN" "http://www.w3.org/Graphics/SVG/1.1/DTD/svg11.dtd">
<svg version="1.1"
	 id="svg2" inkscape:version="0.48.1 " sodipodi:docname="WordPress_blue_logo.svg" xmlns:dc="http://purl.org/dc/elements/1.1/" xmlns:cc="http://creativecommons.org/ns#" xmlns:rdf="http://www.w3.org/1999/02/22-rdf-syntax-ns#" xmlns:svg="http://www.w3.org/2000/svg" xmlns:inkscape="http://www.inkscape.org/namespaces/inkscape" xmlns:sodipodi="http://sodipodi.sourceforge.net/DTD/sodipodi-0.dtd"
	 xmlns="http://www.w3.org/2000/svg" xmlns:xlink="http://www.w3.org/1999/xlink" x="0px" y="0px" width="100px" height="100px"
	 viewBox="0 0 100 100" enable-background="new 0 0 100 100" xml:space="preserve">
<sodipodi:namedview  id="namedview34" inkscape:pageshadow="2" inkscape:pageopacity="0" gridtolerance="10" objecttolerance="10" inkscape:cy="59.951461" inkscape:cx="304.14148" inkscape:zoom="1.24" showgrid="false" pagecolor="#ffffff" bordercolor="#666666" borderopacity="1" inkscape:window-maximized="0" inkscape:window-y="0" inkscape:window-x="0" inkscape:window-height="726" inkscape:window-width="1052" inkscape:current-layer="svg2" guidetolerance="10">
	</sodipodi:namedview>
<g id="Layer_1">
</g>
<g>
	<defs>
		<rect id="SVGID_1_" x="0" y="0" width="99.999" height="100"/>
	</defs>
	<clipPath id="SVGID_2_">
		<use xlink:href="#SVGID_1_"  overflow="visible"/>
	</clipPath>
	<g id="g6" clip-path="url(#SVGID_2_)">
		<path id="path8" inkscape:connector-curvature="0" fill="#00749A" d="M255.616,39.362h-17.35v1.84
			c5.427,0,6.299,1.163,6.299,8.044v12.407c0,6.882-0.871,8.142-6.299,8.142c-4.166-0.581-6.978-2.811-10.854-7.075l-4.458-4.846
			c6.009-1.067,9.206-4.846,9.206-9.112c0-5.33-4.554-9.4-13.084-9.4h-17.058v1.84c5.427,0,6.299,1.163,6.299,8.044v12.407
			c0,6.882-0.872,8.142-6.299,8.142v1.842h19.286v-1.842c-5.426,0-6.299-1.26-6.299-8.142v-3.488h1.647l10.759,13.471h28.204
			c13.859,0,19.868-7.365,19.868-16.187C275.485,46.63,269.477,39.362,255.616,39.362L255.616,39.362z M215.007,55.158V42.269h3.973
			c4.361,0,6.3,3.005,6.3,6.494c0,3.393-1.938,6.396-6.3,6.396L215.007,55.158L215.007,55.158z M255.907,68.632h-0.679
			c-3.488,0-3.974-0.871-3.974-5.33V42.269c0,0,4.265,0,4.652,0c10.08,0,11.92,7.365,11.92,13.084
			C267.827,61.265,265.987,68.632,255.907,68.632z"/>
		<path id="path10" inkscape:connector-curvature="0" fill="#00749A" d="M148.035,58.746l6.688-19.773
			c1.939-5.718,1.067-7.365-5.137-7.365v-1.939h18.222v1.939c-6.105,0-7.56,1.453-9.982,8.529l-11.05,33.147h-1.26l-9.887-30.337
			L125.55,73.284h-1.26l-10.759-33.147c-2.325-7.076-3.877-8.529-9.498-8.529v-1.939h21.517v1.939c-5.72,0-7.271,1.356-5.234,7.365
			l6.494,19.773l9.789-29.078h1.842L148.035,58.746z"/>
		<path id="path12" inkscape:connector-curvature="0" fill="#00749A" d="M180.988,72.895c-10.661,0-19.384-7.85-19.384-17.446
			c0-9.498,8.724-17.349,19.384-17.349c10.661,0,19.384,7.851,19.384,17.349C200.371,65.046,191.649,72.895,180.988,72.895z
			 M180.988,41.106c-8.916,0-12.019,8.044-12.019,14.344c0,6.397,3.103,14.345,12.019,14.345c9.015,0,12.116-7.947,12.116-14.345
			C193.104,49.15,190.002,41.106,180.988,41.106z"/>
		<path id="path14" inkscape:connector-curvature="0" fill="#464342" d="M299.423,69.698v1.938h-22.194v-1.938
			c6.494,0,7.657-1.647,7.657-11.341V42.85c0-9.694-1.163-11.243-7.657-11.243v-1.939h20.063c9.982,0,15.509,5.137,15.509,12.019
			c0,6.688-5.526,11.921-15.509,11.921h-5.525v4.747C291.766,68.051,292.929,69.698,299.423,69.698L299.423,69.698z M297.291,33.156
			h-5.525v16.866h5.525c5.428,0,7.947-3.78,7.947-8.335C305.239,37.035,302.719,33.156,297.291,33.156z"/>
		<path id="path16" inkscape:connector-curvature="0" fill="#464342" d="M379.383,62.526l-0.485,1.744
			c-0.871,3.198-1.939,4.361-8.82,4.361h-1.357c-5.038,0-5.911-1.163-5.911-8.044V56.13c7.56,0,8.143,0.678,8.143,5.718h1.841
			V47.406h-1.841c0,5.04-0.583,5.718-8.143,5.718V42.269h5.33c6.882,0,7.947,1.163,8.819,4.361l0.486,1.841h1.55l-0.678-9.11
			h-28.496v1.84c5.428,0,6.3,1.163,6.3,8.044v12.407c0,6.295-0.74,7.882-5.02,8.107c-4.067-0.621-6.859-2.84-10.68-7.041
			l-4.458-4.846c6.009-1.067,9.207-4.846,9.207-9.112c0-5.33-4.555-9.4-13.083-9.4h-17.059v1.84c5.427,0,6.299,1.163,6.299,8.044
			v12.407c0,6.882-0.871,8.142-6.299,8.142v1.842h19.287v-1.842c-5.426,0-6.3-1.26-6.3-8.142v-3.488h1.647l10.759,13.471h39.834
			l0.582-9.109L379.383,62.526L379.383,62.526z M328.016,55.158V42.269h3.973c4.361,0,6.301,3.005,6.301,6.494
			c0,3.393-1.939,6.396-6.301,6.396L328.016,55.158L328.016,55.158z"/>
		<path id="path18" inkscape:connector-curvature="0" fill="#464342" d="M399.057,72.895c-3.876,0-7.27-2.034-8.723-3.296
			c-0.485,0.485-1.356,1.939-1.55,3.296h-1.842V59.522h1.938c0.776,6.396,5.233,10.176,10.952,10.176
			c3.101,0,5.621-1.745,5.621-4.651c0-2.52-2.229-4.459-6.202-6.3l-5.525-2.617c-3.878-1.843-6.784-5.041-6.784-9.305
			c0-4.652,4.361-8.625,10.371-8.625c3.198,0,5.911,1.163,7.56,2.52c0.484-0.388,0.97-1.455,1.26-2.618h1.842v11.438h-2.036
			c-0.679-4.556-3.198-8.335-8.334-8.335c-2.714,0-5.235,1.55-5.235,3.975c0,2.52,2.035,3.876,6.688,6.008l5.33,2.617
			c4.653,2.229,6.493,5.817,6.493,8.725C410.881,68.632,405.551,72.895,399.057,72.895L399.057,72.895z"/>
		<path id="path20" inkscape:connector-curvature="0" fill="#464342" d="M428.908,72.895c-3.877,0-7.271-2.034-8.723-3.296
			c-0.485,0.485-1.357,1.939-1.55,3.296h-1.842V59.522h1.938c0.774,6.396,5.232,10.176,10.952,10.176
			c3.101,0,5.621-1.745,5.621-4.651c0-2.52-2.229-4.459-6.203-6.3l-5.525-2.617c-3.877-1.843-6.784-5.041-6.784-9.305
			c0-4.652,4.361-8.625,10.371-8.625c3.198,0,5.911,1.163,7.56,2.52c0.484-0.388,0.969-1.455,1.259-2.618h1.842v11.438h-2.035
			c-0.679-4.556-3.198-8.335-8.334-8.335c-2.714,0-5.235,1.55-5.235,3.975c0,2.52,2.036,3.876,6.688,6.008l5.33,2.617
			c4.653,2.229,6.494,5.817,6.494,8.725C440.733,68.632,435.402,72.895,428.908,72.895L428.908,72.895z"/>
		<g id="g22">
			<path id="path24" inkscape:connector-curvature="0" fill="#00749A" d="M7.108,49.999c0,16.978,9.866,31.649,24.174,38.604
				l-20.46-56.06C8.441,37.877,7.108,43.781,7.108,49.999z"/>
			<path id="path26" inkscape:connector-curvature="0" fill="#00749A" d="M78.956,47.834c0-5.301-1.903-8.972-3.538-11.83
				c-2.173-3.533-4.211-6.525-4.211-10.059c0-3.943,2.99-7.614,7.202-7.614c0.19,0,0.37,0.024,0.556,0.035
				C71.334,11.376,61.167,7.107,50,7.107c-14.985,0-28.168,7.688-35.838,19.333c1.007,0.03,1.956,0.051,2.76,0.051
				c4.487,0,11.432-0.544,11.432-0.544c2.312-0.136,2.585,3.26,0.275,3.533c0,0-2.324,0.273-4.91,0.409L39.34,76.35l9.387-28.152
				l-6.684-18.311c-2.31-0.135-4.498-0.409-4.498-0.409c-2.312-0.136-2.041-3.67,0.271-3.533c0,0,7.083,0.544,11.298,0.544
				c4.486,0,11.432-0.544,11.432-0.544c2.313-0.137,2.585,3.26,0.275,3.533c0,0-2.328,0.273-4.909,0.409l15.5,46.109L75.691,61.7
				C77.545,55.767,78.956,51.506,78.956,47.834z"/>
			<path id="path28" inkscape:connector-curvature="0" fill="#00749A" d="M50.753,53.751L37.884,91.146
				c3.843,1.13,7.906,1.748,12.117,1.748c4.995,0,9.785-0.864,14.244-2.432c-0.116-0.184-0.22-0.379-0.306-0.591L50.753,53.751z"/>
			<path id="path30" inkscape:connector-curvature="0" fill="#00749A" d="M87.637,29.419c0.185,1.367,0.289,2.833,0.289,4.411
				c0,4.353-0.813,9.246-3.262,15.364L71.563,87.075C84.315,79.638,92.892,65.823,92.892,50
				C92.892,42.542,90.988,35.53,87.637,29.419L87.637,29.419z"/>
			<path id="path32" inkscape:connector-curvature="0" fill="#00749A" d="M50,0C22.43,0,0,22.429,0,49.999
				C0,77.571,22.43,100,50,100c27.569,0,50.002-22.429,50.002-50.001C100.002,22.429,77.57,0,50,0z M50,97.708
				c-26.305,0-47.708-21.402-47.708-47.709C2.293,23.694,23.694,2.293,50,2.293c26.305,0,47.705,21.401,47.705,47.706
				C97.705,76.305,76.305,97.708,50,97.708L50,97.708z"/>
		</g>
	</g>
</g>
</svg>
