<?xml version="1.0" encoding="utf-8"?>
<!-- Generator: Adobe Illustrator 15.1.0, SVG Export Plug-In . SVG Version: 6.00 Build 0)  -->
<!DOCTYPE svg PUBLIC "-//W3C//DTD SVG 1.0//EN" "http://www.w3.org/TR/2001/REC-SVG-20010904/DTD/svg10.dtd">
<svg version="1.0" id="Ebene_1" xmlns="http://www.w3.org/2000/svg" xmlns:xlink="http://www.w3.org/1999/xlink" x="0px" y="0px"
	 width="416.636px" height="416.012px" viewBox="0 0 416.636 416.012" enable-background="new 0 0 416.636 416.012"
	 xml:space="preserve">
<g>
	<path fill="#F9AF3C" stroke="#FFFFFF" stroke-width="0.5" stroke-miterlimit="10" d="M207.573,69.221V41.078
		c-0.075,0-0.148-0.003-0.224-0.003c-34.216,0-66.079,10.063-92.804,27.381L130.23,92.18
		C152.499,77.711,179.053,69.282,207.573,69.221z"/>
	<path opacity="0.3" fill="#FFFFFF" stroke="#FFFFFF" stroke-width="0.5" stroke-miterlimit="10" d="M130.23,92.18l-15.685-23.725
		c-27.247,17.656-49.147,42.857-62.741,72.648l26.255,11.473C89.396,127.829,107.598,106.885,130.23,92.18z"/>
	<path opacity="0.3" fill="#FFFFFF" stroke="#FFFFFF" stroke-width="0.5" stroke-miterlimit="10" d="M207.884,69.217
		c28.342,0,54.755,8.262,76.962,22.507l15.309-23.269c-26.667-17.28-58.449-27.334-92.581-27.378v28.144
		C207.677,69.221,207.78,69.217,207.884,69.217z"/>
	<path opacity="0.3" fill="#FFFFFF" stroke="#FFFFFF" stroke-width="0.5" stroke-miterlimit="10" d="M337.541,152.215l25.354-11.111
		c-13.595-29.791-35.494-54.992-62.741-72.648l-15.309,23.269C307.69,106.379,326.077,127.372,337.541,152.215z"/>
	<path opacity="0.3" fill="#FFFFFF" stroke="#FFFFFF" stroke-width="0.5" stroke-miterlimit="10" d="M350.612,211.944
		c0,6.898-0.5,13.679-1.446,20.315l27.285,4.449c1.172-8.079,1.79-16.339,1.79-24.743c0-25.279-5.494-49.273-15.346-70.861
		l-25.354,11.111C345.927,170.387,350.612,190.617,350.612,211.944z"/>
	<path opacity="0.3" fill="#FFFFFF" stroke="#FFFFFF" stroke-width="0.5" stroke-miterlimit="10" d="M349.166,232.259
		c-3.97,27.854-15.974,53.119-33.601,73.363l20.717,18.502c21.015-24.137,35.356-54.232,40.169-87.416L349.166,232.259z"/>
	<path opacity="0.3" fill="#FFFFFF" stroke="#FFFFFF" stroke-width="0.5" stroke-miterlimit="10" d="M207.884,354.673
		c-14.035,0-27.593-2.035-40.405-5.811l-7.819,27.242c15.137,4.391,31.137,6.754,47.69,6.754c16.717,0,32.868-2.412,48.138-6.887
		l-7.741-26.949C235.094,352.696,221.721,354.673,207.884,354.673z"/>
	<path opacity="0.3" fill="#FFFFFF" stroke="#FFFFFF" stroke-width="0.5" stroke-miterlimit="10" d="M247.746,349.022l7.741,26.949
		c31.734-9.299,59.643-27.551,80.795-51.848l-20.717-18.502C297.823,325.999,274.392,341.288,247.746,349.022z"/>
	<path opacity="0.3" fill="#FFFFFF" stroke="#FFFFFF" stroke-width="0.5" stroke-miterlimit="10" d="M66.581,232.101l-28.333,4.607
		c4.822,33.244,19.208,63.386,40.285,87.546l21.33-19.021C82.389,285.015,70.503,259.838,66.581,232.101z"/>
	<path opacity="0.3" fill="#FFFFFF" stroke="#FFFFFF" stroke-width="0.5" stroke-miterlimit="10" d="M99.863,305.233l-21.33,19.021
		c21.238,24.344,49.263,42.607,81.126,51.85l7.819-27.242C140.889,341.026,117.524,325.665,99.863,305.233z"/>
	<path opacity="0.3" fill="#FFFFFF" stroke="#FFFFFF" stroke-width="0.5" stroke-miterlimit="10" d="M65.158,211.944
		c0-21.185,4.622-41.289,12.902-59.367l-26.255-11.473c-9.852,21.588-15.346,45.582-15.346,70.861c0,8.404,0.618,16.664,1.79,24.743
		l28.333-4.607C65.65,225.515,65.158,218.788,65.158,211.944z"/>
	<path opacity="0.3" fill="#FFFFFF" stroke="#FFFFFF" stroke-width="0.5" stroke-miterlimit="10" d="M145.416,115.151L130.23,92.18
		c-22.633,14.705-40.835,35.648-52.171,60.396l24.942,10.9C112.313,143.637,127.096,126.876,145.416,115.151z"/>
	<path fill="#F59B3A" stroke="#FFFFFF" stroke-width="0.5" stroke-miterlimit="10" d="M207.571,97.008c0.001,0,0.001,0,0.002,0
		V69.221c-28.521,0.061-55.074,8.49-77.343,22.959l15.186,22.971C163.358,103.667,184.688,97.008,207.571,97.008z"/>
	<path opacity="0.3" fill="#FFFFFF" stroke="#FFFFFF" stroke-width="0.5" stroke-miterlimit="10" d="M269.519,115.02l15.327-23.296
		c-22.207-14.245-48.62-22.507-76.962-22.507c-0.104,0-0.207,0.004-0.311,0.004v27.787
		C230.368,97.008,251.619,103.618,269.519,115.02z"/>
	<path opacity="0.3" fill="#FFFFFF" stroke="#FFFFFF" stroke-width="0.5" stroke-miterlimit="10" d="M92.115,212.465
		c0-17.516,3.907-34.116,10.887-48.988l-24.942-10.9c-8.28,18.078-12.902,38.183-12.902,59.367c0,6.844,0.492,13.571,1.423,20.157
		l26.548-4.317C92.464,222.771,92.115,217.66,92.115,212.465z"/>
	<path fill="#F59B3A" stroke="#FFFFFF" stroke-width="0.5" stroke-miterlimit="10" d="M312.092,163.368l25.449-11.152
		c-11.464-24.844-29.851-45.836-52.695-60.491l-15.327,23.296C287.901,126.731,302.743,143.5,312.092,163.368z"/>
	<path opacity="0.3" fill="#FFFFFF" stroke="#FFFFFF" stroke-width="0.5" stroke-miterlimit="10" d="M337.541,152.215
		l-25.449,11.152c7.012,14.9,10.938,31.539,10.938,49.098c0,5.211-0.352,10.339-1.021,15.366l27.156,4.428
		c0.946-6.637,1.446-13.417,1.446-20.315C350.612,190.617,345.927,170.387,337.541,152.215z"/>
	<path opacity="0.3" fill="#FFFFFF" stroke="#FFFFFF" stroke-width="0.5" stroke-miterlimit="10" d="M295.3,287.522l20.266,18.1
		c17.627-20.244,29.631-45.508,33.601-73.363l-27.156-4.428C319.001,250.456,309.442,271.009,295.3,287.522z"/>
	<path opacity="0.3" fill="#FFFFFF" stroke="#FFFFFF" stroke-width="0.5" stroke-miterlimit="10" d="M240.328,323.202l7.418,25.82
		c26.646-7.734,50.077-23.023,67.819-43.4l-20.266-18.1C280.987,304.235,261.983,316.806,240.328,323.202z"/>
	<path opacity="0.3" fill="#FFFFFF" stroke="#FFFFFF" stroke-width="0.5" stroke-miterlimit="10" d="M93.129,227.784l-26.548,4.317
		c3.922,27.737,15.808,52.914,33.282,73.132l19.929-17.773C105.669,270.944,96.127,250.398,93.129,227.784z"/>
	<path opacity="0.3" fill="#FFFFFF" stroke="#FFFFFF" stroke-width="0.5" stroke-miterlimit="10" d="M207.571,327.923
		c-11.37,0-22.353-1.65-32.729-4.713l-7.363,25.652c12.813,3.775,26.37,5.811,40.405,5.811c13.837,0,27.21-1.977,39.862-5.65
		l-7.418-25.82C229.942,326.269,218.951,327.923,207.571,327.923z"/>
	<path opacity="0.3" fill="#FFFFFF" stroke="#FFFFFF" stroke-width="0.5" stroke-miterlimit="10" d="M119.792,287.46l-19.929,17.773
		c17.661,20.432,41.025,35.793,67.615,43.629l7.363-25.652C153.148,316.808,134.115,304.21,119.792,287.46z"/>
	<path opacity="0.3" fill="#FFFFFF" stroke="#FFFFFF" stroke-width="0.5" stroke-miterlimit="10" d="M160.873,138.532
		l-15.457-23.381c-18.32,11.726-33.104,28.486-42.414,48.326l26.156,11.429C136.12,160.004,147.172,147.397,160.873,138.532z"/>
	<path fill="#F18538" stroke="#FFFFFF" stroke-width="0.5" stroke-miterlimit="10" d="M207.573,124.611V97.008
		c-0.001,0-0.001,0-0.002,0c-22.884,0-44.213,6.658-62.155,18.143l15.457,23.381C174.341,129.819,190.364,124.722,207.573,124.611z"
		/>
	<path opacity="0.3" fill="#FFFFFF" stroke="#FFFFFF" stroke-width="0.5" stroke-miterlimit="10" d="M121.005,211.743
		c0-13.166,2.926-25.646,8.153-36.837l-26.156-11.429c-6.979,14.872-10.887,31.473-10.887,48.988c0,5.194,0.349,10.306,1.014,15.318
		l28.616-4.653C121.259,219.403,121.005,215.603,121.005,211.743z"/>
	<path fill="#F18538" stroke="#FFFFFF" stroke-width="0.5" stroke-miterlimit="10" d="M208.145,124.604
		c17.017,0,32.891,4.883,46.308,13.316l15.066-22.9c-17.899-11.402-39.15-18.012-61.945-18.012v27.603
		C207.764,124.61,207.953,124.604,208.145,124.604z"/>
	<path opacity="0.3" fill="#FFFFFF" stroke="#FFFFFF" stroke-width="0.5" stroke-miterlimit="10" d="M141.606,268.004
		l-21.814,19.456c14.323,16.75,33.356,29.348,55.05,35.75l8.05-28.049C166.602,290.237,152.329,280.673,141.606,268.004z"/>
	<path opacity="0.3" fill="#FFFFFF" stroke="#FFFFFF" stroke-width="0.5" stroke-miterlimit="10" d="M121.745,223.13l-28.616,4.653
		c2.998,22.614,12.54,43.161,26.663,59.676l21.814-19.456C131.069,255.555,123.962,240.113,121.745,223.13z"/>
	<path opacity="0.3" fill="#FFFFFF" stroke="#FFFFFF" stroke-width="0.5" stroke-miterlimit="10" d="M295.285,211.743
		c0,3.936-0.266,7.809-0.771,11.605l27.496,4.483c0.669-5.027,1.021-10.155,1.021-15.366c0-17.559-3.927-34.197-10.938-49.098
		l-25.192,11.041C292.273,185.725,295.285,198.381,295.285,211.743z"/>
	<path opacity="0.3" fill="#FFFFFF" stroke="#FFFFFF" stroke-width="0.5" stroke-miterlimit="10" d="M274.15,268.634l21.149,18.888
		c14.143-16.514,23.701-37.067,26.71-59.691l-27.496-4.483C292.227,240.531,284.937,256.131,274.15,268.634z"/>
	<path fill="#F18538" stroke="#FFFFFF" stroke-width="0.5" stroke-miterlimit="10" d="M269.519,115.02l-15.066,22.9
		c13.993,8.795,25.308,21.456,32.447,36.488l25.192-11.041C302.743,143.5,287.901,126.731,269.519,115.02z"/>
	<path fill="#F18538" stroke="#FFFFFF" stroke-width="0.5" stroke-miterlimit="10" d="M232.362,295.47l7.966,27.732
		c21.655-6.396,40.659-18.967,54.972-35.68l-21.149-18.888C263.261,281.257,248.812,290.72,232.362,295.47z"/>
	<path opacity="0.3" fill="#FFFFFF" stroke="#FFFFFF" stroke-width="0.5" stroke-miterlimit="10" d="M208.145,298.884
		c-8.782,0-17.259-1.305-25.253-3.723l-8.05,28.049c10.377,3.063,21.359,4.713,32.729,4.713c11.38,0,22.371-1.654,32.757-4.721
		l-7.966-27.732C224.673,297.69,216.549,298.884,208.145,298.884z"/>
	<path opacity="0.3" fill="#FFFFFF" stroke="#FFFFFF" stroke-width="0.5" stroke-miterlimit="10" d="M148.245,218.821l-26.5,4.31
		c2.217,16.982,9.324,32.425,19.861,44.874l19.831-17.687C154.251,241.55,149.51,230.706,148.245,218.821z"/>
	<path fill="#ED6F36" stroke="#FFFFFF" stroke-width="0.5" stroke-miterlimit="10" d="M147.9,212.42
		c0-9.558,2.253-18.584,6.238-26.599l-24.98-10.916c-5.228,11.19-8.153,23.671-8.153,36.837c0,3.86,0.254,7.66,0.74,11.388
		l26.5-4.31C148.021,216.717,147.9,214.583,147.9,212.42z"/>
	<path fill="#ED6F36" stroke="#FFFFFF" stroke-width="0.5" stroke-miterlimit="10" d="M207.573,152.594v-27.983
		c-17.209,0.111-33.232,5.208-46.7,13.921l15.263,23.087C185.265,155.929,196.031,152.625,207.573,152.594z"/>
	<path opacity="0.3" fill="#FFFFFF" stroke="#FFFFFF" stroke-width="0.5" stroke-miterlimit="10" d="M176.136,161.619
		l-15.263-23.087c-13.701,8.865-24.753,21.473-31.715,36.374l24.98,10.916C159.094,175.858,166.742,167.473,176.136,161.619z"/>
	<path opacity="0.3" fill="#FFFFFF" stroke="#FFFFFF" stroke-width="0.5" stroke-miterlimit="10" d="M161.438,250.318
		l-19.831,17.687c10.723,12.668,24.995,22.233,41.285,27.157l7.325-25.521C178.795,266.148,168.826,259.333,161.438,250.318z"/>
	<path opacity="0.3" fill="#FFFFFF" stroke="#FFFFFF" stroke-width="0.5" stroke-miterlimit="10" d="M253.866,250.517l20.284,18.117
		c10.786-12.503,18.076-28.104,20.363-45.286l-27.306-4.452C265.922,230.84,261.128,241.734,253.866,250.517z"/>
	<path fill="#ED6F36" stroke="#FFFFFF" stroke-width="0.5" stroke-miterlimit="10" d="M207.731,272.251
		c-6.095,0-11.974-0.916-17.515-2.611l-7.325,25.521c7.994,2.418,16.471,3.723,25.253,3.723c8.404,0,16.528-1.193,24.218-3.414
		l-7.396-25.75C219.507,271.36,213.725,272.251,207.731,272.251z"/>
	<path fill="#ED6F36" stroke="#FFFFFF" stroke-width="0.5" stroke-miterlimit="10" d="M207.573,124.611v27.983
		c0.053,0,0.105-0.004,0.158-0.004c11.462,0,22.168,3.229,31.268,8.817l15.453-23.487c-13.417-8.434-29.291-13.316-46.308-13.316
		C207.953,124.604,207.764,124.61,207.573,124.611z"/>
	<path fill="#ED6F36" stroke="#FFFFFF" stroke-width="0.5" stroke-miterlimit="10" d="M267.563,212.42
		c0,2.188-0.125,4.348-0.354,6.476l27.306,4.452c0.506-3.797,0.771-7.67,0.771-11.605c0-13.361-3.012-26.018-8.386-37.334
		l-25.661,11.245C265.276,193.709,267.563,202.795,267.563,212.42z"/>
	<path fill="#ED6F36" stroke="#FFFFFF" stroke-width="0.5" stroke-miterlimit="10" d="M261.238,185.654l25.661-11.245
		c-7.14-15.032-18.454-27.693-32.447-36.488l-15.453,23.487C248.491,167.239,256.222,175.647,261.238,185.654z"/>
	<path fill="#ED6F36" stroke="#FFFFFF" stroke-width="0.5" stroke-miterlimit="10" d="M224.966,269.72l7.396,25.75
		c16.449-4.75,30.898-14.213,41.788-26.835l-20.284-18.117C246.434,259.507,236.421,266.279,224.966,269.72z"/>
	<path opacity="0.3" fill="#FFFFFF" stroke="#FFFFFF" stroke-width="0.5" stroke-miterlimit="10" d="M176.319,214.255l-28.074,4.565
		c1.265,11.885,6.006,22.729,13.192,31.497l21.753-19.399C179.429,226.268,176.954,220.535,176.319,214.255z"/>
	<path fill="#EA5733" stroke="#FFFFFF" stroke-width="0.5" stroke-miterlimit="10" d="M183.19,230.918l-21.753,19.399
		c7.389,9.016,17.357,15.83,28.779,19.322l8.148-28.389C192.329,239.367,187.074,235.72,183.19,230.918z"/>
	<path fill="#EA5733" stroke="#FFFFFF" stroke-width="0.5" stroke-miterlimit="10" d="M207.81,242.685
		c-3.289,0-6.461-0.503-9.444-1.434l-8.148,28.389c5.541,1.695,11.42,2.611,17.515,2.611c5.993,0,11.775-0.891,17.234-2.531
		l-8.143-28.345C213.966,242.223,210.942,242.685,207.81,242.685z"/>
	<path fill="#EA5733" stroke="#FFFFFF" stroke-width="0.5" stroke-miterlimit="10" d="M176.157,211.033
		c0-5.081,1.204-9.878,3.332-14.133l-25.351-11.078c-3.985,8.015-6.238,17.041-6.238,26.599c0,2.163,0.121,4.297,0.345,6.4
		l28.074-4.565C176.213,213.196,176.157,212.121,176.157,211.033z"/>
	<path opacity="0.3" fill="#FFFFFF" stroke="#FFFFFF" stroke-width="0.5" stroke-miterlimit="10" d="M191.054,184.184
		l-14.918-22.565c-9.394,5.854-17.042,14.239-21.997,24.203l25.351,11.078C182.104,191.67,186.122,187.268,191.054,184.184z"/>
	<path fill="#EA5733" stroke="#FFFFFF" stroke-width="0.5" stroke-miterlimit="10" d="M236.029,196.702l25.209-11.048
		c-5.017-10.007-12.747-18.415-22.239-24.246l-14.823,22.529C229.224,186.993,233.342,191.421,236.029,196.702z"/>
	<path fill="#EA5733" stroke="#FFFFFF" stroke-width="0.5" stroke-miterlimit="10" d="M207.81,179.381
		c5.99,0,11.591,1.665,16.366,4.556l14.823-22.529c-9.1-5.589-19.806-8.817-31.268-8.817c-0.053,0-0.105,0.004-0.158,0.004v26.793
		C207.652,179.387,207.73,179.381,207.81,179.381z"/>
	<path fill="#EA5733" stroke="#FFFFFF" stroke-width="0.5" stroke-miterlimit="10" d="M191.054,184.184
		c4.798-3.001,10.454-4.752,16.52-4.797v-26.793c-11.542,0.03-22.309,3.335-31.438,9.024L191.054,184.184z"/>
	<path fill="#EA5733" stroke="#FFFFFF" stroke-width="0.5" stroke-miterlimit="10" d="M239.462,211.033
		c0,1.118-0.06,2.223-0.173,3.312l27.919,4.552c0.229-2.128,0.354-4.287,0.354-6.476c0-9.625-2.286-18.711-6.324-26.767
		l-25.209,11.048C238.219,201.006,239.462,205.873,239.462,211.033z"/>
	<path fill="#EA5733" stroke="#FFFFFF" stroke-width="0.5" stroke-miterlimit="10" d="M232.219,231.184l21.647,19.333
		c7.262-8.783,12.056-19.677,13.342-31.621l-27.919-4.552C238.628,220.707,236.082,226.509,232.219,231.184z"/>
	<path fill="#EA5733" stroke="#FFFFFF" stroke-width="0.5" stroke-miterlimit="10" d="M216.823,241.375l8.143,28.345
		c11.455-3.441,21.468-10.213,28.9-19.203l-21.647-19.333C228.265,235.968,222.928,239.564,216.823,241.375z"/>
	<path fill="#E52329" stroke="#FFFFFF" stroke-width="0.5" stroke-miterlimit="10" d="M183.19,230.918
		c3.884,4.802,9.139,8.448,15.175,10.333l9.208-32.079L183.19,230.918z"/>
	<path fill="#E52329" stroke="#FFFFFF" stroke-width="0.5" stroke-miterlimit="10" d="M216.823,241.375
		c6.104-1.812,11.441-5.407,15.396-10.191l-24.646-22.012L216.823,241.375z"/>
	<path fill="#E52329" stroke="#FFFFFF" stroke-width="0.5" stroke-miterlimit="10" d="M198.365,241.251
		c2.983,0.931,6.155,1.434,9.444,1.434c3.133,0,6.156-0.462,9.014-1.31l-9.25-32.203L198.365,241.251z"/>
	<path fill="#E52329" stroke="#FFFFFF" stroke-width="0.5" stroke-miterlimit="10" d="M179.489,196.9
		c-2.128,4.255-3.332,9.052-3.332,14.133c0,1.088,0.056,2.163,0.162,3.223l31.254-5.083L179.489,196.9z"/>
	<path fill="#E52329" stroke="#FFFFFF" stroke-width="0.5" stroke-miterlimit="10" d="M176.319,214.255
		c0.635,6.279,3.109,12.013,6.871,16.663l24.383-21.746L176.319,214.255z"/>
	<path fill="#E52329" stroke="#FFFFFF" stroke-width="0.5" stroke-miterlimit="10" d="M236.029,196.702
		c-2.688-5.28-6.806-9.709-11.854-12.765l-16.603,25.235L236.029,196.702z"/>
	<path fill="#E52329" stroke="#FFFFFF" stroke-width="0.5" stroke-miterlimit="10" d="M232.219,231.184
		c3.863-4.675,6.409-10.478,7.07-16.84l-31.716-5.172L232.219,231.184z"/>
	<path fill="#E52329" stroke="#FFFFFF" stroke-width="0.5" stroke-miterlimit="10" d="M179.489,196.9l28.084,12.272l-16.52-24.988
		C186.122,187.268,182.104,191.67,179.489,196.9z"/>
	<path fill="#E52329" stroke="#FFFFFF" stroke-width="0.5" stroke-miterlimit="10" d="M207.573,179.387
		c-6.065,0.045-11.722,1.796-16.52,4.797l16.52,24.988V179.387z"/>
	<path fill="#E52329" stroke="#FFFFFF" stroke-width="0.5" stroke-miterlimit="10" d="M239.289,214.344
		c0.113-1.089,0.173-2.193,0.173-3.312c0-5.16-1.243-10.026-3.433-14.331l-28.456,12.471L239.289,214.344z"/>
	<path fill="#E52329" stroke="#FFFFFF" stroke-width="0.5" stroke-miterlimit="10" d="M224.176,183.937
		c-4.775-2.891-10.376-4.556-16.366-4.556c-0.079,0-0.157,0.006-0.236,0.006v29.785L224.176,183.937z"/>
</g>
<circle opacity="0.3" fill="none" cx="207.627" cy="213.353" r="184.712"/>
<g>
	<path d="M138.201,34.408l-0.91,0.374l2.373,5.769l0.91-0.374c0.1-0.041,0.209,0.004,0.25,0.104l0.15,0.366
		c0.042,0.1-0.004,0.209-0.104,0.25l-2.529,1.041c-0.1,0.041-0.209-0.005-0.25-0.104l-0.151-0.366
		c-0.041-0.1,0.005-0.209,0.104-0.25l0.899-0.37l-2.373-5.768l-0.898,0.369c-0.1,0.041-0.209-0.004-0.25-0.104l-0.151-0.366
		c-0.041-0.1,0.005-0.209,0.104-0.25l2.529-1.041c0.1-0.041,0.209,0.005,0.25,0.104l0.15,0.366
		C138.347,34.257,138.301,34.367,138.201,34.408z"/>
	<path d="M141.635,34.236c0.527-0.201,0.988-0.171,1.408-0.048l-0.761-1.996c-0.039-0.101,0.021-0.214,0.123-0.252l0.358-0.137
		c0.101-0.038,0.209,0.01,0.248,0.111l2.641,6.931c0.038,0.101-0.01,0.209-0.111,0.248l-0.359,0.137
		c-0.101,0.039-0.221-0.006-0.259-0.107l-0.064-0.168c-0.235,0.359-0.555,0.7-1.083,0.9c-0.987,0.376-1.958,0.052-2.527-0.835
		c-0.728-1.135-0.938-2.429-0.944-2.479C140.139,35.5,140.648,34.612,141.635,34.236z M141.078,36.414
		c0.004,0.011,0.194,1.185,0.833,2.187c0.517,0.817,1.284,0.641,1.587,0.525c0.471-0.18,0.707-0.539,0.912-0.977
		c0.042-0.093,0.042-0.26,0.003-0.361l-0.931-2.445c-0.039-0.101-0.146-0.214-0.243-0.267c-0.44-0.179-0.855-0.291-1.327-0.111
		C141.61,35.081,140.919,35.459,141.078,36.414z"/>
	<path d="M149.932,34.788l-3.224,1.109c0.101,0.257,0.229,0.518,0.383,0.782c0.501,0.831,1.275,0.679,1.581,0.573
		c0.261-0.09,0.801-0.364,0.89-1.03c0.014-0.106,0.089-0.221,0.191-0.256l0.397-0.137c0.102-0.035,0.198,0.021,0.199,0.135
		c0.032,0.941-0.504,1.71-1.423,2.026c-0.999,0.344-1.959-0.012-2.511-0.914c-0.687-1.148-0.859-2.459-0.863-2.509l-0.004-0.011
		c-0.12-1.05,0.422-1.91,1.421-2.253c0.988-0.34,1.944,0.004,2.496,0.906l0.004,0.011c0.023,0.03,0.332,0.559,0.594,1.319
		C150.098,34.642,150.034,34.752,149.932,34.788z M146.477,35.151l2.634-0.906c-0.151-0.367-0.298-0.608-0.306-0.631
		c-0.513-0.827-1.275-0.679-1.582-0.573c-0.306,0.105-1.009,0.461-0.894,1.425C146.337,34.488,146.371,34.769,146.477,35.151z"/>
	<path d="M153.352,30.5c0.48,0.09,1.119,0.407,1.421,1.381l1.109,3.575c0.032,0.103-0.023,0.208-0.126,0.24l-0.378,0.117
		c-0.103,0.032-0.208-0.023-0.24-0.126l-1.109-3.575c-0.149-0.481-0.413-0.764-0.802-0.844c-0.31-0.067-0.6,0.01-0.611,0.014
		l-0.104,0.032c-0.481,0.149-0.727,0.49-0.952,0.898c-0.059,0.094-0.074,0.249-0.042,0.352l1.202,3.874
		c0.032,0.103-0.023,0.208-0.126,0.24l-0.378,0.117c-0.104,0.032-0.208-0.023-0.24-0.126l-1.618-5.214
		c-0.032-0.103,0.023-0.208,0.126-0.24l0.378-0.118c0.103-0.032,0.205,0.012,0.237,0.115c0.028,0.092,0.053,0.172,0.053,0.172
		c0.258-0.344,0.602-0.651,1.129-0.815l0.103-0.032C152.429,30.522,152.856,30.402,153.352,30.5z"/>
	<path d="M158.353,29.703l-1.317,0.369l0.86,3.073c0.081,0.289,0.266,0.548,0.512,0.716c0.136,0.086,0.417,0.244,0.741,0.154
		l0.381-0.107c0.104-0.029,0.208,0.029,0.237,0.133l0.104,0.37c0.029,0.104-0.026,0.219-0.13,0.248l-0.381,0.106
		c-0.462,0.129-0.962,0.033-1.396-0.269c-0.386-0.266-0.688-0.679-0.818-1.141l-0.86-3.073l-0.75,0.21
		c-0.104,0.029-0.211-0.041-0.24-0.145l-0.104-0.37c-0.029-0.104,0.029-0.208,0.133-0.237l0.751-0.21l-0.369-1.316
		c-0.029-0.104,0.029-0.208,0.133-0.237l0.381-0.107c0.104-0.029,0.207,0.029,0.236,0.133l0.369,1.317l1.317-0.369
		c0.104-0.029,0.208,0.029,0.237,0.133l0.104,0.37C158.512,29.559,158.457,29.674,158.353,29.703z"/>
	<path d="M160.601,28.505l1.375,5.283c0.027,0.104-0.033,0.207-0.138,0.234l-0.383,0.1c-0.105,0.027-0.207-0.033-0.234-0.138
		l-1.227-4.714l-0.755,0.197c-0.104,0.027-0.21-0.045-0.237-0.149l-0.097-0.372c-0.027-0.104,0.033-0.207,0.138-0.234l1.324-0.345
		C160.471,28.341,160.574,28.401,160.601,28.505z M160.208,26.996l0.097,0.372c0.027,0.104-0.03,0.219-0.134,0.246l-0.383,0.1
		c-0.104,0.027-0.21-0.044-0.237-0.149l-0.097-0.372c-0.027-0.104,0.033-0.207,0.138-0.234l0.383-0.1
		C160.079,26.831,160.181,26.891,160.208,26.996z"/>
	<path d="M164.712,28.098l-1.331,0.32l0.747,3.105c0.07,0.292,0.246,0.558,0.485,0.735c0.133,0.091,0.408,0.26,0.735,0.181
		l0.385-0.093c0.105-0.025,0.206,0.037,0.231,0.142l0.09,0.374c0.025,0.105-0.034,0.218-0.139,0.243l-0.385,0.093
		c-0.467,0.112-0.964-0.003-1.386-0.321c-0.376-0.28-0.664-0.705-0.776-1.171l-0.747-3.105l-0.759,0.182
		c-0.105,0.025-0.209-0.048-0.235-0.153l-0.09-0.374c-0.025-0.105,0.037-0.207,0.142-0.232l0.759-0.182l-0.32-1.331
		c-0.025-0.105,0.037-0.206,0.142-0.231l0.385-0.093c0.105-0.025,0.206,0.037,0.231,0.142l0.32,1.331l1.331-0.32
		c0.105-0.025,0.207,0.037,0.231,0.142l0.09,0.374C164.876,27.96,164.817,28.073,164.712,28.098z"/>
	<path d="M169.114,26.7c0.379,0.226,0.608,0.606,0.733,1.193l0.831,3.896c0.022,0.105-0.042,0.205-0.148,0.228l-0.387,0.083
		c-0.105,0.022-0.205-0.042-0.228-0.147l-0.058-0.27c-0.106,0.133-0.23,0.245-0.344,0.343c-0.494,0.387-1.043,0.517-1.066,0.522
		l-0.188,0.04c-0.845,0.18-1.673-0.367-1.851-1.2l-0.025-0.118c-0.165-0.774,0.126-1.364,0.863-1.766l1.631-0.863
		c0.03-0.031,0.294-0.173,0.239-0.431l-0.033-0.153c-0.14-0.657-0.367-0.916-1.341-0.708c-0.88,0.188-1.053,0.47-0.976,1.005
		c0.011,0.108-0.054,0.208-0.159,0.23l-0.387,0.083c-0.106,0.022-0.206-0.042-0.216-0.15c-0.082-0.498-0.004-0.882,0.211-1.198
		c0.256-0.349,0.684-0.587,1.365-0.732C168.25,26.442,168.737,26.485,169.114,26.7z M166.535,26.17
		c-0.105,0.022-0.217-0.04-0.24-0.145l-0.083-0.387c-0.022-0.106,0.054-0.208,0.16-0.23l0.375-0.08
		c0.105-0.022,0.205,0.042,0.228,0.147l0.083,0.387c0.022,0.106-0.042,0.206-0.148,0.228L166.535,26.17z M169.484,29.933
		l-0.143-0.669c-0.044,0.022-0.086,0.056-0.122,0.063l-1.605,0.87c-0.496,0.265-0.543,0.557-0.468,0.909l0.025,0.118
		c0.087,0.411,0.503,0.69,0.925,0.6l0.188-0.04c0,0,0.408-0.1,0.765-0.384C169.475,31.039,169.62,30.566,169.484,29.933z
		 M168.131,25.83c-0.105,0.022-0.205-0.042-0.228-0.148l-0.083-0.387c-0.023-0.105,0.042-0.205,0.147-0.228l0.387-0.083
		c0.105-0.022,0.206,0.042,0.228,0.147l0.083,0.387c0.022,0.106-0.042,0.206-0.148,0.228L168.131,25.83z"/>
	<path d="M173.685,26.273l-1.345,0.249l0.581,3.137c0.055,0.295,0.215,0.57,0.445,0.759c0.128,0.099,0.394,0.281,0.724,0.22
		l0.389-0.072c0.106-0.02,0.204,0.048,0.224,0.154l0.07,0.377c0.02,0.106-0.045,0.216-0.152,0.235l-0.389,0.072
		c-0.472,0.087-0.961-0.054-1.366-0.394c-0.36-0.299-0.625-0.738-0.712-1.21l-0.581-3.138l-0.767,0.142
		c-0.106,0.02-0.206-0.06-0.226-0.166l-0.07-0.377c-0.02-0.106,0.047-0.204,0.154-0.224l0.767-0.142l-0.249-1.345
		c-0.02-0.106,0.048-0.204,0.154-0.224l0.389-0.072c0.106-0.02,0.204,0.047,0.224,0.154l0.249,1.344l1.345-0.249
		c0.106-0.02,0.204,0.048,0.224,0.154l0.07,0.377C173.856,26.144,173.792,26.254,173.685,26.273z"/>
</g>
<g>
	<path d="M225.241,21.633c0.045-0.105,0.158-0.181,0.267-0.173l0.97,0.073c0.107,0.009,0.209,0.101,0.236,0.211l1.43,6.717
		c0.029,0.098,0.039,0.279,0.031,0.387l-0.033,0.443c-0.008,0.107-0.098,0.186-0.206,0.177l-0.396-0.03
		c-0.107-0.008-0.186-0.098-0.177-0.205l0.04-0.527l-0.357-1.652l-2.932-0.221l-0.601,1.579l-0.04,0.526
		c-0.008,0.107-0.098,0.186-0.206,0.178l-0.395-0.03c-0.108-0.008-0.185-0.098-0.177-0.206l0.033-0.443
		c0.008-0.107,0.045-0.285,0.088-0.378L225.241,21.633z M225.831,22.268l-1.43,3.803l2.477,0.188l-0.843-3.975L225.831,22.268z"/>
	<path d="M229.95,29.505c-0.405-0.272-0.865-0.818-0.755-1.833l0.405-3.723c0.012-0.107,0.104-0.182,0.212-0.17l0.394,0.043
		c0.107,0.012,0.182,0.104,0.17,0.211l-0.404,3.723c-0.055,0.502,0.076,0.854,0.399,1.095c0.258,0.185,0.555,0.229,0.566,0.231
		l0.108,0.012c0.5,0.054,0.861-0.16,1.242-0.445c0.08-0.063,0.157-0.212,0.168-0.32l0.438-4.021c0.011-0.107,0.104-0.182,0.212-0.17
		l0.394,0.042c0.106,0.012,0.183,0.105,0.171,0.213l-0.592,5.43c-0.012,0.106-0.104,0.182-0.212,0.17l-0.394-0.043
		c-0.107-0.012-0.182-0.105-0.172-0.201c0.012-0.106,0.021-0.189,0.021-0.189c-0.375,0.225-0.813,0.369-1.362,0.311l-0.108-0.012
		C230.806,29.852,230.378,29.793,229.95,29.505z"/>
	<path d="M237.685,25.522l-1.355-0.184l-0.43,3.163c-0.041,0.297,0.025,0.609,0.186,0.861c0.09,0.133,0.285,0.389,0.619,0.435
		l0.393,0.054c0.105,0.014,0.178,0.109,0.164,0.216l-0.052,0.38c-0.015,0.107-0.11,0.191-0.218,0.178l-0.393-0.055
		c-0.477-0.064-0.896-0.352-1.175-0.801c-0.249-0.397-0.362-0.898-0.298-1.373l0.43-3.163l-0.772-0.104
		c-0.107-0.016-0.177-0.121-0.163-0.229l0.053-0.381c0.014-0.107,0.108-0.179,0.215-0.164l0.773,0.104l0.185-1.355
		c0.015-0.106,0.108-0.179,0.216-0.165l0.393,0.054c0.107,0.015,0.179,0.11,0.164,0.217l-0.184,1.355l1.355,0.185
		c0.106,0.015,0.179,0.109,0.164,0.216l-0.052,0.38C237.888,25.453,237.792,25.537,237.685,25.522z"/>
	<path d="M242.163,25.605c0.389,0.295,0.82,0.863,0.654,1.871l-0.604,3.697c-0.018,0.106-0.113,0.176-0.221,0.158l-0.391-0.063
		c-0.106-0.018-0.176-0.114-0.158-0.221l0.604-3.697c0.082-0.497-0.027-0.868-0.341-1.114c-0.247-0.198-0.542-0.259-0.554-0.262
		l-0.107-0.017c-0.497-0.081-0.869,0.114-1.254,0.38c-0.094,0.057-0.177,0.189-0.194,0.297l-0.653,4.005
		c-0.018,0.106-0.114,0.177-0.222,0.159l-0.391-0.064c-0.106-0.018-0.177-0.113-0.159-0.221l1.197-7.324
		c0.017-0.105,0.113-0.176,0.221-0.158l0.391,0.064c0.105,0.018,0.176,0.113,0.16,0.209c-0.018,0.106-0.345,2.109-0.345,2.109
		c0.385-0.193,0.831-0.314,1.376-0.227l0.105,0.018C241.326,25.213,241.763,25.297,242.163,25.605z"/>
	<path d="M247.93,29.805l-3.344-0.656c-0.042,0.273-0.062,0.564-0.061,0.869c0.019,0.97,0.763,1.226,1.081,1.287
		c0.271,0.054,0.875,0.087,1.285-0.444c0.066-0.085,0.188-0.147,0.294-0.126l0.413,0.08c0.105,0.021,0.16,0.117,0.104,0.217
		c-0.443,0.83-1.291,1.227-2.246,1.039c-1.035-0.203-1.688-0.99-1.715-2.047c-0.019-1.337,0.489-2.559,0.51-2.603l0.002-0.012
		c0.422-0.97,1.322-1.44,2.359-1.238c1.023,0.2,1.679,0.977,1.704,2.034l-0.003,0.012c0.006,0.037,0.008,0.648-0.146,1.438
		C248.146,29.76,248.036,29.824,247.93,29.805z M244.759,28.389l2.732,0.534c0.053-0.394,0.047-0.675,0.051-0.699
		c-0.029-0.972-0.762-1.226-1.08-1.287s-1.104-0.106-1.486,0.785C244.971,27.746,244.858,28.004,244.759,28.389z"/>
	<path d="M253.024,27.815c0.37,0.319,0.763,0.914,0.535,1.908l-0.839,3.647c-0.024,0.105-0.125,0.169-0.23,0.145l-0.386-0.088
		c-0.105-0.025-0.168-0.125-0.145-0.23l0.839-3.648c0.113-0.491,0.026-0.867-0.269-1.133c-0.234-0.215-0.523-0.293-0.535-0.295
		l-0.105-0.025c-0.492-0.113-0.876,0.059-1.275,0.299c-0.098,0.051-0.189,0.178-0.213,0.283l-0.908,3.953
		c-0.023,0.105-0.125,0.168-0.23,0.144l-0.385-0.089c-0.105-0.024-0.17-0.125-0.145-0.229l1.223-5.321
		c0.023-0.105,0.124-0.168,0.23-0.145l0.386,0.089c0.104,0.024,0.171,0.113,0.146,0.218c-0.021,0.095-0.04,0.176-0.04,0.176
		c0.396-0.168,0.849-0.26,1.386-0.137l0.105,0.024C252.216,27.371,252.646,27.482,253.024,27.815z"/>
	<path d="M257.771,29.636l-1.324-0.343l-0.798,3.092c-0.075,0.29-0.046,0.607,0.083,0.876c0.075,0.144,0.238,0.421,0.564,0.505
		l0.383,0.1c0.104,0.027,0.165,0.129,0.139,0.233l-0.097,0.372c-0.027,0.105-0.132,0.177-0.237,0.149l-0.383-0.099
		c-0.465-0.12-0.85-0.455-1.073-0.935c-0.2-0.423-0.255-0.933-0.134-1.397l0.798-3.091l-0.755-0.194
		c-0.105-0.027-0.162-0.142-0.135-0.246l0.096-0.372c0.027-0.104,0.129-0.165,0.234-0.138l0.754,0.195l0.344-1.325
		c0.026-0.104,0.129-0.165,0.232-0.138l0.385,0.1c0.104,0.027,0.164,0.129,0.137,0.233l-0.342,1.325l1.324,0.342
		c0.105,0.027,0.166,0.129,0.139,0.233l-0.096,0.372C257.981,29.59,257.876,29.663,257.771,29.636z"/>
	<path d="M260.298,29.726l-1.463,5.257c-0.028,0.104-0.133,0.163-0.236,0.135l-0.381-0.106c-0.104-0.03-0.162-0.133-0.133-0.237
		l1.305-4.691l-0.752-0.209c-0.104-0.027-0.158-0.143-0.13-0.248l0.103-0.369c0.029-0.104,0.133-0.162,0.236-0.133l1.318,0.365
		C260.269,29.518,260.327,29.621,260.298,29.726z M260.716,28.223l-0.103,0.371c-0.029,0.104-0.136,0.174-0.24,0.145l-0.381-0.106
		c-0.104-0.029-0.159-0.144-0.13-0.248l0.103-0.37c0.028-0.104,0.132-0.162,0.235-0.133l0.383,0.106
		C260.687,28.016,260.745,28.119,260.716,28.223z"/>
	<path d="M264.271,29.459c-0.322-0.098-0.603,0.045-0.744,0.141c-0.249,0.163-0.438,0.42-0.524,0.708l1.312,0.392
		c0.104,0.031,0.159,0.135,0.129,0.238l-0.109,0.368c-0.031,0.104-0.14,0.172-0.243,0.141l-1.312-0.392l-1.395,4.67
		c-0.031,0.104-0.135,0.16-0.239,0.13l-0.38-0.113c-0.104-0.03-0.159-0.136-0.129-0.239l1.395-4.67l-0.747-0.224
		c-0.104-0.03-0.157-0.147-0.126-0.251l0.109-0.367c0.031-0.104,0.136-0.16,0.239-0.13l0.748,0.224
		c0.138-0.461,0.447-0.869,0.841-1.139c0.436-0.284,0.938-0.372,1.398-0.234l0.38,0.113c0.104,0.031,0.16,0.135,0.129,0.238
		l-0.113,0.379c-0.03,0.105-0.136,0.161-0.239,0.13L264.271,29.459z"/>
	<path d="M266.483,31.594l-1.656,5.199c-0.033,0.104-0.139,0.157-0.241,0.125l-0.377-0.12c-0.103-0.033-0.157-0.139-0.124-0.241
		l1.477-4.639l-0.742-0.236c-0.102-0.033-0.153-0.15-0.121-0.254l0.117-0.365c0.033-0.103,0.137-0.157,0.24-0.125l1.303,0.416
		C266.462,31.385,266.517,31.491,266.483,31.594z M266.956,30.108l-0.117,0.366c-0.031,0.103-0.141,0.168-0.244,0.136l-0.377-0.12
		c-0.103-0.033-0.153-0.15-0.12-0.252l0.116-0.366c0.032-0.103,0.139-0.157,0.24-0.124l0.378,0.119
		C266.935,29.9,266.989,30.006,266.956,30.108z"/>
	<path d="M266.044,37.383c-0.103-0.035-0.154-0.141-0.119-0.244l0.303-0.885c0.035-0.104,0.139-0.22,0.234-0.275l3.916-2.213
		l0.077-0.229l-2.771-0.947c-0.103-0.035-0.15-0.153-0.115-0.256l0.124-0.363c0.035-0.102,0.142-0.154,0.244-0.119l3.328,1.139
		c0.102,0.035,0.154,0.141,0.119,0.244l-0.299,0.875c-0.035,0.102-0.143,0.229-0.237,0.286l-3.917,2.212l-0.078,0.228l2.771,0.948
		c0.104,0.035,0.155,0.142,0.121,0.244l-0.129,0.375c-0.035,0.102-0.143,0.154-0.244,0.119L266.044,37.383z"/>
	<path d="M273.724,34.095l-1.883,5.128c-0.037,0.102-0.146,0.15-0.247,0.113l-0.372-0.137c-0.102-0.036-0.15-0.145-0.113-0.246
		l1.68-4.576l-0.732-0.269c-0.102-0.036-0.147-0.155-0.11-0.257l0.132-0.361c0.037-0.102,0.146-0.151,0.248-0.113l1.284,0.471
		C273.711,33.885,273.761,33.993,273.724,34.095z M274.261,32.629l-0.133,0.361c-0.037,0.102-0.148,0.162-0.25,0.125l-0.371-0.137
		c-0.103-0.037-0.148-0.156-0.111-0.258l0.133-0.36c0.037-0.102,0.145-0.151,0.247-0.114l0.372,0.137
		C274.249,32.42,274.298,32.527,274.261,32.629z"/>
	<path d="M277.759,38.914l-3.17-1.248c-0.09,0.262-0.162,0.542-0.216,0.844c-0.157,0.955,0.528,1.342,0.83,1.461
		c0.257,0.101,0.845,0.242,1.343-0.206c0.081-0.072,0.212-0.11,0.313-0.071l0.391,0.154c0.101,0.039,0.137,0.145,0.063,0.23
		c-0.587,0.736-1.491,0.974-2.396,0.617c-0.982-0.387-1.48-1.279-1.315-2.322c0.222-1.317,0.942-2.426,0.971-2.467l0.005-0.011
		c0.59-0.876,1.559-1.178,2.541-0.792c0.971,0.383,1.475,1.264,1.309,2.308l-0.004,0.011c-0.002,0.039-0.109,0.641-0.404,1.388
		C277.979,38.91,277.858,38.953,277.759,38.914z M274.897,36.949l2.588,1.02c0.123-0.377,0.168-0.656,0.178-0.678
		c0.146-0.961-0.529-1.343-0.83-1.461c-0.302-0.119-1.066-0.305-1.604,0.502C275.221,36.355,275.063,36.59,274.897,36.949z"/>
	<path d="M282.297,37.232c0.101,0.041,0.145,0.15,0.103,0.251l-0.149,0.354c-0.042,0.099-0.152,0.144-0.257,0.113
		c-0.516-0.166-0.936-0.097-1.352,0.055c-0.105,0.033-0.217,0.143-0.259,0.241l-1.578,3.738c-0.042,0.099-0.152,0.144-0.251,0.102
		l-0.365-0.154c-0.1-0.042-0.145-0.152-0.103-0.252l2.13-5.041c0.041-0.1,0.152-0.145,0.252-0.102l0.365,0.153
		c0.099,0.042,0.144,0.152,0.102,0.251l-0.08,0.189C281.253,37.051,281.753,37.04,282.297,37.232z"/>
	<path d="M281.808,43.309c-0.299-0.385-0.566-1.047-0.146-1.976l1.545-3.409c0.045-0.099,0.155-0.141,0.255-0.096l0.359,0.163
		c0.1,0.044,0.141,0.155,0.097,0.254l-1.546,3.41c-0.207,0.459-0.193,0.834,0.039,1.163c0.188,0.257,0.455,0.391,0.467,0.396
		l0.099,0.044c0.458,0.208,0.868,0.118,1.319-0.034c0.095-0.036,0.214-0.152,0.259-0.252l1.669-3.684
		c0.045-0.098,0.155-0.139,0.254-0.095l0.36,0.163c0.099,0.045,0.14,0.156,0.096,0.254l-2.253,4.973
		c-0.045,0.1-0.156,0.141-0.254,0.096l-0.361-0.163c-0.098-0.044-0.14-0.155-0.1-0.243c0.045-0.098,0.079-0.175,0.079-0.175
		c-0.426,0.097-0.888,0.099-1.391-0.129l-0.099-0.045C282.513,43.904,282.124,43.716,281.808,43.309z"/>
	<path d="M291.22,41.667c0.287,0.396,0.533,1.063,0.082,1.979l-1.652,3.358c-0.047,0.096-0.16,0.135-0.258,0.087l-0.354-0.175
		c-0.098-0.049-0.136-0.16-0.088-0.258l1.652-3.356c0.223-0.452,0.226-0.839-0.002-1.165c-0.179-0.261-0.441-0.404-0.453-0.409
		l-0.097-0.048c-0.452-0.223-0.864-0.145-1.309-0.002c-0.106,0.027-0.225,0.129-0.272,0.227l-1.791,3.637
		c-0.047,0.097-0.159,0.135-0.256,0.088l-0.355-0.176c-0.098-0.047-0.135-0.16-0.087-0.256l2.409-4.896
		c0.048-0.098,0.161-0.135,0.258-0.088l0.355,0.175c0.096,0.048,0.141,0.149,0.092,0.247c-0.042,0.085-0.079,0.16-0.079,0.16
		c0.424-0.072,0.885-0.059,1.38,0.186l0.097,0.047C290.536,41.049,290.929,41.256,291.22,41.667z"/>
	<path d="M296.824,45.271l-0.224-0.117l-0.191-0.048c0.014,0.333-0.076,0.681-0.268,1.04c-0.563,1.061-1.611,1.346-2.735,0.749
		c-0.255-0.135-0.472-0.29-0.649-0.467c-0.202-0.054-0.316,0.009-0.387,0.065c-0.105,0.067-0.166,0.157-0.166,0.157
		c-0.078,0.148-0.082,0.282-0.032,0.418c0.058,0.099,0.142,0.171,0.146,0.187l0.012,0.006l1.584,1.289
		c0.18,0.15,0.43,0.42,0.502,0.797c0.062,0.318-0.012,0.66-0.226,1.063c-0.225,0.425-0.591,0.679-1.069,0.735
		c-0.49,0.053-1.051-0.095-1.73-0.455c-0.678-0.36-1.125-0.747-1.345-1.178c-0.221-0.43-0.215-0.875,0.011-1.299
		c0.247-0.467,0.603-0.727,1.077-0.801c0.103-0.014,0.216-0.021,0.344-0.008c-0.144-0.293-0.192-0.686,0.038-1.121
		c0.023-0.042,0.151-0.259,0.398-0.441c0.119-0.072,0.25-0.139,0.38-0.178c-0.129-0.449-0.067-0.947,0.202-1.456
		c0.293-0.551,0.715-0.911,1.229-1.033c0.458-0.097,0.982-0.008,1.512,0.273c0.404,0.214,0.709,0.485,0.91,0.796l0.534,0.12
		c0.106,0.03,0.267,0.087,0.362,0.138l0.148,0.079c0.096,0.052,0.141,0.17,0.09,0.265l-0.181,0.34
		C297.05,45.283,296.919,45.322,296.824,45.271z M293.399,49.135l-0.9-0.736c-1.316-0.414-1.563-0.178-1.755,0.182
		c-0.101,0.191-0.105,0.379-0.003,0.57c0.103,0.189,0.357,0.502,1.016,0.852c0.656,0.35,1.059,0.386,1.274,0.364
		c0.216-0.021,0.368-0.13,0.47-0.321C293.765,49.547,293.667,49.372,293.399,49.135z M295.453,45.781
		c0.366-0.689,0.17-1.242-0.583-1.642c-0.752-0.399-1.32-0.253-1.686,0.437c-0.186,0.35-0.227,0.654-0.12,0.941
		c0.106,0.261,0.348,0.498,0.708,0.689c0.359,0.191,0.691,0.258,0.967,0.201C295.036,46.334,295.267,46.131,295.453,45.781z"/>
</g>
<g>
	<path d="M343.152,77.718l-0.716-0.676l-4.277,4.541l0.715,0.675c0.079,0.074,0.083,0.192,0.009,0.271l-0.271,0.288
		c-0.074,0.078-0.192,0.082-0.271,0.008l-1.991-1.875c-0.078-0.074-0.082-0.193-0.008-0.271l0.271-0.288
		c0.074-0.079,0.193-0.083,0.271-0.009l0.707,0.667l4.278-4.541l-0.708-0.666c-0.078-0.074-0.082-0.193-0.008-0.271l0.271-0.288
		c0.074-0.078,0.193-0.083,0.271-0.008l1.991,1.875c0.078,0.074,0.082,0.192,0.008,0.271l-0.271,0.288
		C343.35,77.788,343.231,77.791,343.152,77.718z"/>
	<path d="M345.46,81.868c0.146,0.467,0.164,1.179-0.556,1.902l-2.642,2.654c-0.076,0.077-0.195,0.078-0.271,0.001l-0.281-0.279
		c-0.076-0.076-0.077-0.195-0.001-0.271l2.643-2.654c0.355-0.358,0.481-0.724,0.37-1.104c-0.085-0.306-0.289-0.526-0.298-0.534
		l-0.077-0.076c-0.356-0.356-0.773-0.414-1.24-0.422c-0.109-0.008-0.254,0.052-0.33,0.128l-2.862,2.876
		c-0.076,0.076-0.195,0.077-0.271,0.001l-0.28-0.279c-0.077-0.076-0.078-0.195-0.002-0.272l3.854-3.871
		c0.076-0.076,0.195-0.077,0.271-0.001l0.281,0.28c0.076,0.076,0.085,0.187,0.009,0.263c-0.067,0.068-0.127,0.128-0.127,0.128
		c0.424,0.067,0.857,0.228,1.249,0.616l0.076,0.076C345.009,81.063,345.314,81.384,345.46,81.868z"/>
	<path d="M349.364,85.938c0.131,0.47,0.126,1.184-0.616,1.883l-2.726,2.568c-0.078,0.073-0.197,0.07-0.271-0.009l-0.272-0.288
		c-0.074-0.079-0.07-0.197,0.009-0.272l2.725-2.567c0.366-0.346,0.505-0.706,0.406-1.092c-0.075-0.308-0.272-0.534-0.28-0.543
		l-0.074-0.078c-0.346-0.367-0.761-0.439-1.227-0.461c-0.109-0.012-0.256,0.043-0.334,0.117l-2.953,2.781
		c-0.078,0.074-0.197,0.07-0.271-0.008l-0.272-0.288c-0.074-0.078-0.07-0.197,0.009-0.271l5.397-5.086
		c0.078-0.074,0.197-0.07,0.271,0.008l0.272,0.288c0.073,0.079,0.07,0.197,0.001,0.264c-0.08,0.074-1.556,1.465-1.556,1.465
		c0.422,0.081,0.85,0.254,1.229,0.656l0.073,0.079C348.938,85.118,349.234,85.45,349.364,85.938z"/>
	<path d="M353.107,90.373c-0.011,0.441-0.229,0.827-0.679,1.225l-2.984,2.638c-0.081,0.071-0.199,0.063-0.271-0.018l-0.263-0.296
		c-0.071-0.081-0.063-0.199,0.018-0.271l0.206-0.184c-0.168-0.027-0.326-0.079-0.468-0.131c-0.58-0.239-0.963-0.654-0.979-0.672
		l-0.127-0.144c-0.572-0.647-0.502-1.638,0.136-2.202l0.09-0.078c0.593-0.525,1.25-0.561,1.962-0.117l1.553,0.996
		c0.042,0.011,0.296,0.171,0.493-0.004l0.117-0.103c0.503-0.445,0.616-0.771-0.043-1.516c-0.595-0.674-0.927-0.687-1.354-0.355
		c-0.089,0.062-0.207,0.056-0.279-0.025l-0.262-0.297c-0.071-0.081-0.064-0.2,0.025-0.262c0.393-0.315,0.766-0.438,1.146-0.405
		c0.43,0.052,0.848,0.307,1.309,0.828C352.906,89.494,353.108,89.939,353.107,90.373z M350.474,92.284l0.513-0.453
		c-0.041-0.028-0.091-0.047-0.114-0.074l-1.547-0.971c-0.475-0.301-0.752-0.199-1.021,0.039l-0.09,0.079
		c-0.314,0.278-0.354,0.777-0.068,1.101l0.127,0.144c0,0,0.287,0.307,0.71,0.478C349.507,92.819,349.989,92.714,350.474,92.284z"/>
	<path d="M351.821,95.057c-0.248,0.209-0.377,0.633-0.169,0.88l0.14,0.165c0.07,0.083,0.061,0.2-0.022,0.271l-0.303,0.256
		c-0.083,0.069-0.201,0.059-0.271-0.023l-0.14-0.164c-0.519-0.615-0.28-1.522,0.261-1.979l4.685-3.956
		c0.082-0.07,0.2-0.061,0.271,0.022l0.256,0.303c0.069,0.082,0.059,0.2-0.023,0.271L351.821,95.057z"/>
	<path d="M357.399,96.187l-0.863-1.062l-2.478,2.015c-0.232,0.189-0.397,0.463-0.453,0.756c-0.025,0.16-0.058,0.48,0.153,0.742
		l0.25,0.307c0.068,0.084,0.057,0.202-0.027,0.271l-0.298,0.242c-0.083,0.068-0.212,0.063-0.28-0.02l-0.249-0.308
		c-0.304-0.373-0.414-0.871-0.31-1.389c0.09-0.461,0.349-0.903,0.722-1.206l2.478-2.015l-0.493-0.605
		c-0.068-0.084-0.046-0.21,0.037-0.278l0.298-0.242c0.084-0.068,0.202-0.057,0.271,0.028l0.493,0.604l1.062-0.863
		c0.084-0.068,0.202-0.056,0.271,0.027l0.25,0.308c0.068,0.084,0.056,0.202-0.028,0.271l-1.062,0.863l0.863,1.062
		c0.068,0.084,0.057,0.202-0.027,0.27l-0.298,0.243C357.595,96.275,357.468,96.271,357.399,96.187z"/>
	<path d="M358.672,101.825l-2.077-2.699c-0.21,0.177-0.417,0.381-0.618,0.611c-0.626,0.739-0.237,1.423-0.04,1.68
		c0.169,0.219,0.602,0.643,1.26,0.515c0.105-0.021,0.237,0.015,0.303,0.1l0.256,0.333c0.066,0.086,0.043,0.193-0.064,0.23
		c-0.881,0.33-1.779,0.067-2.371-0.702c-0.643-0.837-0.612-1.859,0.065-2.669c0.868-1.015,2.056-1.596,2.102-1.615l0.009-0.008
		c0.957-0.448,1.943-0.208,2.587,0.629c0.636,0.826,0.615,1.842-0.063,2.65l-0.01,0.008c-0.021,0.031-0.424,0.492-1.061,0.982
		C358.862,101.936,358.737,101.911,358.672,101.825z M357.229,98.669l1.696,2.205c0.299-0.26,0.48-0.476,0.5-0.49
		c0.619-0.748,0.236-1.423,0.039-1.68c-0.197-0.256-0.758-0.809-1.633-0.393C357.812,98.326,357.557,98.447,357.229,98.669z"/>
</g>
<g>
	<path d="M389.447,165.653c-0.219,0.286-0.517,0.468-0.897,0.576c-0.693,0.194-1.271,0.132-1.738-0.198
		c-0.419-0.294-0.73-0.78-0.928-1.485c-0.194-0.693-0.182-1.27,0.023-1.739c0.205-0.469,0.605-0.818,1.197-1.021
		c0.101-0.041,0.207,0.028,0.236,0.133l0.104,0.37c0.029,0.104-0.029,0.207-0.13,0.248c-0.553,0.205-1.013,0.609-0.68,1.799
		c0.373,1.329,1.069,1.321,1.704,1.142c0.381-0.107,0.626-0.3,0.82-1.028l0.564-2.302c0.032-0.196,0.264-1.059,1.199-1.321
		c0.67-0.188,1.204-0.151,1.648,0.099c0.458,0.257,0.77,0.743,0.973,1.471c0.208,0.739,0.195,1.317-0.063,1.775
		c-0.225,0.399-0.604,0.692-1.174,0.877c-0.102,0.041-0.208-0.029-0.237-0.133l-0.104-0.369c-0.029-0.104,0.028-0.208,0.129-0.249
		c0.673-0.226,0.996-0.628,0.698-1.691c-0.325-1.156-0.875-1.25-1.66-1.03c-0.509,0.143-0.631,0.638-0.644,0.728l-0.576,2.343
		C389.79,165.095,389.642,165.411,389.447,165.653z"/>
	<path d="M393.35,169.684l0.095,0.385c0.026,0.104-0.035,0.207-0.14,0.232l-0.443,0.109c-0.104,0.026-0.272,0.043-0.387,0.035
		l-4.799-0.457c-0.163-0.008-2.337-0.2-2.732-1.796l-0.037-0.151c-0.021-0.082,0.044-0.172,0.149-0.197l0.384-0.095
		c0.104-0.026,0.204,0.023,0.224,0.105c0.021,0.082,0.038,0.151,0.038,0.151c0.17,0.688,0.946,0.978,1.487,1.115l4.265-2.8
		c0.097-0.06,0.254-0.124,0.358-0.15l0.442-0.11c0.104-0.026,0.207,0.035,0.232,0.14l0.096,0.385
		c0.026,0.105-0.035,0.207-0.141,0.233l-0.513,0.126l-3.553,2.327l4.229,0.399l0.513-0.127
		C393.222,169.518,393.324,169.579,393.35,169.684z"/>
	<path d="M394.247,174.471c-0.132,0.47-0.504,1.078-1.501,1.294l-3.659,0.789c-0.105,0.023-0.205-0.041-0.229-0.146l-0.084-0.387
		c-0.022-0.106,0.042-0.205,0.147-0.228l3.66-0.79c0.492-0.106,0.797-0.344,0.911-0.725c0.095-0.303,0.043-0.598,0.04-0.61
		l-0.022-0.105c-0.106-0.492-0.424-0.768-0.812-1.028c-0.087-0.066-0.241-0.095-0.347-0.072l-3.965,0.855
		c-0.105,0.023-0.205-0.042-0.228-0.146l-0.084-0.388c-0.022-0.105,0.042-0.205,0.147-0.229l5.337-1.151
		c0.105-0.022,0.205,0.042,0.229,0.147l0.083,0.387c0.023,0.105-0.029,0.203-0.136,0.226c-0.094,0.021-0.176,0.039-0.176,0.039
		c0.32,0.287,0.597,0.657,0.713,1.196l0.022,0.106C394.306,173.55,394.388,173.986,394.247,174.471z"/>
	<path d="M395.353,178.78c0.102,0.555-0.012,1.003-0.209,1.393l2.102-0.385c0.106-0.02,0.206,0.059,0.226,0.166l0.069,0.378
		c0.02,0.106-0.048,0.204-0.154,0.224l-7.297,1.336c-0.106,0.02-0.204-0.048-0.224-0.154l-0.069-0.378
		c-0.02-0.106,0.046-0.216,0.152-0.235l0.178-0.032c-0.312-0.297-0.588-0.674-0.689-1.229c-0.19-1.039,0.305-1.935,1.281-2.333
		c1.249-0.509,2.561-0.481,2.609-0.478C394.382,177.079,395.162,177.742,395.353,178.78z M393.312,177.836
		c-0.012,0.002-1.2-0.024-2.302,0.421c-0.898,0.36-0.864,1.147-0.806,1.466c0.091,0.496,0.401,0.793,0.795,1.076
		c0.084,0.057,0.248,0.088,0.354,0.068l2.573-0.471c0.107-0.02,0.237-0.104,0.308-0.19c0.256-0.401,0.441-0.789,0.351-1.285
		C394.526,178.602,394.279,177.854,393.312,177.836z"/>
	<path d="M395.892,183.632l-5.394,0.854c-0.106,0.017-0.202-0.053-0.22-0.16l-0.063-0.391c-0.017-0.106,0.054-0.202,0.16-0.22
		l4.813-0.762l-0.122-0.771c-0.017-0.107,0.064-0.205,0.172-0.222l0.379-0.06c0.106-0.017,0.202,0.053,0.22,0.16l0.214,1.352
		C396.067,183.52,395.998,183.615,395.892,183.632z M397.433,183.389l-0.379,0.061c-0.107,0.017-0.215-0.052-0.232-0.158
		l-0.063-0.392c-0.017-0.106,0.065-0.204,0.173-0.222l0.378-0.06c0.107-0.018,0.203,0.053,0.221,0.159l0.062,0.392
		C397.608,183.275,397.539,183.372,397.433,183.389z"/>
	<path d="M390.519,185.857c-0.014-0.107,0.058-0.202,0.165-0.216l0.927-0.126c0.107-0.015,0.258,0.024,0.352,0.085l3.732,2.505
		l0.237-0.033l-0.396-2.9c-0.014-0.107,0.069-0.203,0.177-0.218l0.381-0.052c0.106-0.015,0.201,0.058,0.216,0.165l0.476,3.483
		c0.015,0.106-0.058,0.201-0.164,0.216l-0.915,0.125c-0.107,0.014-0.271-0.024-0.363-0.084l-3.732-2.505l-0.237,0.032l0.395,2.9
		c0.016,0.107-0.057,0.202-0.163,0.217l-0.393,0.053c-0.106,0.015-0.202-0.057-0.216-0.164L390.519,185.857z"/>
	<path d="M396.896,191.242l-5.424,0.617c-0.107,0.012-0.2-0.062-0.212-0.169l-0.045-0.394c-0.012-0.107,0.062-0.2,0.169-0.212
		l4.84-0.55l-0.088-0.775c-0.013-0.107,0.073-0.202,0.181-0.213l0.382-0.043c0.107-0.013,0.2,0.062,0.213,0.169l0.154,1.358
		C397.078,191.136,397.004,191.23,396.896,191.242z M398.446,191.065l-0.381,0.043c-0.107,0.012-0.212-0.061-0.225-0.167
		l-0.045-0.394c-0.012-0.107,0.074-0.202,0.182-0.214l0.381-0.043c0.107-0.013,0.2,0.062,0.213,0.169l0.044,0.393
		C398.628,190.96,398.554,191.053,398.446,191.065z"/>
	<path d="M394.401,197.007l-0.305-3.394c-0.273,0.036-0.558,0.098-0.851,0.185c-0.927,0.288-0.965,1.074-0.935,1.397
		c0.024,0.275,0.162,0.865,0.785,1.11c0.101,0.04,0.194,0.139,0.203,0.247l0.038,0.419c0.009,0.107-0.068,0.187-0.179,0.16
		c-0.921-0.194-1.538-0.898-1.625-1.866c-0.094-1.052,0.48-1.898,1.487-2.218c1.278-0.392,2.593-0.245,2.642-0.237l0.012-0.001
		c1.048,0.135,1.753,0.867,1.847,1.918c0.093,1.04-0.47,1.885-1.477,2.205l-0.013,0.001c-0.034,0.015-0.621,0.188-1.422,0.26
		C394.503,197.202,394.41,197.114,394.401,197.007z M394.876,193.567l0.248,2.772c0.393-0.059,0.662-0.144,0.686-0.146
		c0.925-0.3,0.964-1.075,0.935-1.397c-0.028-0.323-0.206-1.09-1.168-1.208C395.553,193.59,395.272,193.555,394.876,193.567z"/>
	<path d="M397.94,200.323c0.008,0.107-0.071,0.197-0.179,0.204l-0.384,0.024c-0.107,0.007-0.196-0.071-0.216-0.179
		c-0.082-0.536-0.334-0.88-0.653-1.184c-0.077-0.08-0.226-0.13-0.333-0.124l-4.049,0.262c-0.107,0.007-0.197-0.071-0.204-0.179
		l-0.025-0.396c-0.007-0.107,0.071-0.197,0.18-0.203l5.462-0.353c0.108-0.007,0.196,0.071,0.204,0.179l0.025,0.396
		c0.007,0.108-0.071,0.197-0.18,0.204l-0.203,0.013C397.635,199.308,397.868,199.75,397.94,200.323z"/>
	<path d="M392.29,202.591c0.211-0.44,0.683-0.976,1.701-1.016l3.741-0.148c0.108-0.004,0.195,0.076,0.199,0.184l0.016,0.396
		c0.004,0.108-0.076,0.195-0.185,0.199l-3.74,0.149c-0.504,0.02-0.833,0.202-1.023,0.557c-0.145,0.283-0.145,0.583-0.144,0.594
		l0.004,0.108c0.021,0.504,0.285,0.829,0.623,1.164c0.075,0.069,0.232,0.123,0.341,0.119l4.041-0.161
		c0.107-0.004,0.194,0.076,0.199,0.184l0.016,0.396c0.004,0.108-0.076,0.196-0.185,0.2l-5.456,0.217
		c-0.107,0.005-0.194-0.077-0.198-0.184l-0.017-0.396c-0.004-0.108,0.076-0.195,0.173-0.199c0.107-0.004,0.191-0.008,0.191-0.008
		c-0.277-0.337-0.485-0.749-0.508-1.3l-0.005-0.108C392.074,203.488,392.069,203.056,392.29,202.591z"/>
	<path d="M397.98,210.267c-0.225,0.434-0.713,0.953-1.733,0.961l-3.745,0.028c-0.107,0-0.192-0.083-0.192-0.191l-0.004-0.396
		c-0.001-0.108,0.082-0.192,0.19-0.193l3.745-0.027c0.504-0.004,0.852-0.174,1.041-0.523c0.153-0.277,0.164-0.578,0.164-0.59
		l-0.001-0.108c-0.004-0.504-0.259-0.838-0.585-1.172c-0.072-0.083-0.217-0.143-0.325-0.142l-4.058,0.03
		c-0.107,0-0.192-0.083-0.193-0.191l-0.003-0.396c-0.001-0.108,0.083-0.192,0.19-0.193l5.462-0.04c0.108,0,0.192,0.083,0.194,0.191
		l0.002,0.396c0.001,0.108-0.07,0.192-0.179,0.193c-0.096,0-0.18,0.001-0.18,0.001c0.255,0.347,0.45,0.765,0.453,1.317l0.001,0.108
		C398.227,209.377,398.218,209.82,397.98,210.267z"/>
	<path d="M397.267,216.883l0.006-0.252l-0.044-0.193c-0.292,0.161-0.643,0.237-1.05,0.228c-1.2-0.028-1.927-0.838-1.896-2.11
		c0.007-0.288,0.049-0.551,0.127-0.79c-0.043-0.205-0.149-0.28-0.232-0.317c-0.107-0.063-0.215-0.077-0.215-0.077
		c-0.168-0.003-0.289,0.054-0.389,0.159c-0.062,0.094-0.088,0.202-0.101,0.214v0.012l-0.444,1.996
		c-0.053,0.226-0.181,0.572-0.486,0.805c-0.257,0.198-0.596,0.286-1.051,0.275c-0.48-0.012-0.872-0.225-1.139-0.627
		c-0.267-0.415-0.385-0.982-0.367-1.75c0.019-0.768,0.163-1.341,0.448-1.73c0.286-0.39,0.687-0.584,1.167-0.573
		c0.528,0.012,0.92,0.214,1.199,0.605c0.058,0.085,0.115,0.183,0.16,0.304c0.199-0.259,0.528-0.48,1.021-0.468
		c0.048,0.001,0.3,0.019,0.572,0.157c0.119,0.076,0.236,0.162,0.331,0.26c0.344-0.316,0.815-0.484,1.393-0.471
		c0.624,0.015,1.135,0.231,1.474,0.635c0.292,0.367,0.447,0.875,0.434,1.476c-0.011,0.456-0.116,0.85-0.304,1.169l0.131,0.532
		c0.022,0.108,0.042,0.277,0.04,0.385l-0.005,0.168c-0.002,0.108-0.088,0.202-0.196,0.2l-0.384-0.009
		C397.357,217.089,397.264,216.991,397.267,216.883z M392.277,215.552l0.255-1.135c-0.22-1.363-0.541-1.479-0.95-1.488
		c-0.216-0.005-0.386,0.075-0.51,0.252c-0.125,0.177-0.289,0.545-0.307,1.289c-0.019,0.745,0.13,1.12,0.245,1.304
		c0.116,0.182,0.282,0.271,0.498,0.276C392.072,216.064,392.185,215.898,392.277,215.552z M396.197,215.885
		c0.779,0.019,1.186-0.404,1.206-1.257c0.021-0.852-0.366-1.293-1.146-1.312c-0.396-0.009-0.687,0.092-0.896,0.316
		c-0.186,0.211-0.289,0.533-0.299,0.941c-0.01,0.408,0.078,0.734,0.254,0.955C395.515,215.761,395.801,215.875,396.197,215.885z"/>
</g>
<g>
	<path d="M386.982,253.968l0.474-2.253c0.021-0.105,0.121-0.17,0.227-0.148l7.254,1.523c0.106,0.022,0.172,0.122,0.148,0.227
		l-0.453,2.16c-0.012,0.059-0.123,0.526-0.459,0.958c-0.216,0.273-0.479,0.476-0.785,0.595c-0.373,0.142-0.785,0.179-1.256,0.08
		c-0.457-0.096-0.832-0.297-1.104-0.575c-0.152-0.154-0.272-0.339-0.365-0.542c-0.377,0.398-1.007,0.769-1.992,0.562
		c-1.104-0.231-1.51-0.929-1.649-1.486C386.882,254.511,386.97,254.027,386.982,253.968z M388.831,255.79
		c0.574,0.121,1.021-0.019,1.338-0.418c0.25-0.315,0.324-0.667,0.324-0.667c0.02-0.094,0.02-0.094,0.02-0.094l0.332-1.585
		l-2.746-0.576l-0.354,1.678c0,0-0.078,0.376,0.035,0.767C387.913,255.376,388.255,255.669,388.831,255.79z M391.608,253.187
		l-0.334,1.584c-0.004,0.024-0.064,0.367,0.031,0.729c0.125,0.455,0.459,0.733,0.986,0.845c0.541,0.113,0.946-0.01,1.256-0.375
		c0.235-0.305,0.32-0.655,0.32-0.655l0.334-1.584L391.608,253.187z"/>
	<path d="M387.864,261.739l0.809-3.312c-0.271-0.054-0.56-0.087-0.865-0.101c-0.969-0.026-1.26,0.706-1.336,1.021
		c-0.064,0.269-0.126,0.872,0.386,1.305c0.082,0.069,0.138,0.194,0.112,0.299l-0.1,0.409c-0.025,0.105-0.124,0.155-0.221,0.094
		c-0.809-0.482-1.166-1.348-0.936-2.292c0.25-1.026,1.068-1.642,2.125-1.619c1.336,0.042,2.533,0.606,2.576,0.629l0.012,0.003
		c0.949,0.466,1.379,1.387,1.129,2.413c-0.248,1.014-1.053,1.633-2.109,1.61l-0.013-0.003c-0.038,0.003-0.649-0.022-1.431-0.213
		C387.898,261.957,387.839,261.843,387.864,261.739z M389.425,258.636l-0.66,2.705c0.391,0.071,0.674,0.078,0.697,0.083
		c0.972,0.015,1.259-0.706,1.336-1.02c0.076-0.315,0.156-1.099-0.717-1.521C390.059,258.876,389.805,258.752,389.425,258.636z"/>
	<path d="M389.619,266.932c-0.335,0.355-0.946,0.72-1.929,0.448l-3.607-1.001c-0.104-0.028-0.163-0.132-0.134-0.236l0.105-0.381
		c0.029-0.104,0.133-0.163,0.236-0.134l3.607,1.001c0.485,0.134,0.865,0.066,1.144-0.218c0.224-0.224,0.316-0.51,0.319-0.521
		l0.028-0.104c0.135-0.486-0.019-0.877-0.24-1.288c-0.047-0.1-0.17-0.196-0.273-0.225l-3.908-1.084
		c-0.104-0.029-0.162-0.132-0.133-0.236l0.105-0.382c0.029-0.104,0.133-0.162,0.236-0.133l5.26,1.459
		c0.104,0.029,0.162,0.132,0.134,0.236l-0.106,0.381c-0.029,0.104-0.12,0.166-0.225,0.137c-0.092-0.025-0.173-0.048-0.173-0.048
		c0.149,0.402,0.222,0.858,0.075,1.39l-0.029,0.104C390.1,266.144,389.969,266.568,389.619,266.932z"/>
	<path d="M383.405,268.534c0.346-0.344,0.969-0.69,1.943-0.385l3.571,1.117c0.103,0.032,0.157,0.138,0.126,0.241l-0.118,0.378
		c-0.032,0.103-0.138,0.158-0.241,0.125l-3.572-1.117c-0.48-0.15-0.852-0.09-1.149,0.181c-0.231,0.216-0.332,0.499-0.336,0.511
		l-0.032,0.103c-0.15,0.481-0.01,0.876,0.195,1.306c0.047,0.09,0.178,0.193,0.281,0.227l3.857,1.206
		c0.104,0.032,0.159,0.138,0.127,0.239l-0.118,0.379c-0.032,0.104-0.138,0.158-0.241,0.126l-5.209-1.63
		c-0.104-0.031-0.158-0.137-0.126-0.24l0.118-0.377c0.033-0.104,0.139-0.159,0.229-0.13c0.103,0.032,0.183,0.057,0.183,0.057
		c-0.148-0.411-0.206-0.869-0.041-1.395l0.032-0.104C382.899,269.306,383.04,268.897,383.405,268.534z"/>
	<path d="M385.813,276.905l0.442-1.295l-3.021-1.035c-0.285-0.096-0.604-0.091-0.881,0.018c-0.148,0.063-0.438,0.204-0.547,0.522
		l-0.129,0.374c-0.035,0.104-0.143,0.154-0.244,0.12l-0.363-0.124c-0.102-0.035-0.166-0.146-0.131-0.248l0.129-0.375
		c0.155-0.454,0.519-0.812,1.014-0.998c0.438-0.166,0.951-0.182,1.404-0.025l3.021,1.033l0.252-0.738
		c0.035-0.102,0.154-0.15,0.256-0.115l0.363,0.124c0.102,0.035,0.154,0.142,0.119,0.244l-0.252,0.738l1.294,0.443
		c0.103,0.034,0.155,0.142,0.12,0.243l-0.129,0.375c-0.035,0.103-0.142,0.154-0.243,0.119l-1.295-0.442l-0.443,1.294
		c-0.035,0.103-0.142,0.154-0.243,0.12l-0.363-0.124C385.841,277.118,385.777,277.007,385.813,276.905z"/>
	<path d="M380.664,276.276c0.038-0.102,0.146-0.151,0.247-0.114l0.877,0.325c0.102,0.037,0.217,0.143,0.27,0.24l2.113,3.967
		l0.226,0.084l1.017-2.746c0.037-0.102,0.156-0.146,0.258-0.108l0.359,0.133c0.102,0.038,0.15,0.146,0.113,0.247l-1.221,3.296
		c-0.037,0.101-0.145,0.151-0.246,0.113l-0.866-0.319c-0.102-0.038-0.226-0.148-0.28-0.245l-2.113-3.968l-0.225-0.084l-1.018,2.746
		c-0.037,0.102-0.145,0.151-0.246,0.113l-0.371-0.137c-0.102-0.037-0.15-0.146-0.113-0.247L380.664,276.276z"/>
	<path d="M379.903,285.468l1.278-3.16c-0.261-0.092-0.541-0.168-0.842-0.225c-0.956-0.166-1.349,0.517-1.47,0.816
		c-0.104,0.257-0.252,0.844,0.193,1.348c0.07,0.08,0.107,0.213,0.066,0.313l-0.157,0.39c-0.04,0.101-0.146,0.135-0.231,0.062
		c-0.732-0.594-0.959-1.502-0.595-2.404c0.396-0.979,1.294-1.471,2.337-1.294c1.316,0.235,2.42,0.966,2.459,0.995l0.012,0.006
		c0.871,0.598,1.164,1.571,0.768,2.551c-0.393,0.968-1.278,1.463-2.321,1.287l-0.011-0.004c-0.039-0.002-0.64-0.116-1.386-0.418
		C379.904,285.688,379.862,285.567,379.903,285.468z M381.896,282.622l-1.044,2.582c0.376,0.127,0.654,0.174,0.677,0.184
		c0.961,0.156,1.349-0.516,1.471-0.816c0.121-0.301,0.313-1.064-0.489-1.609C382.487,282.952,382.255,282.793,381.896,282.622z"/>
	<path d="M381.532,290.029c-0.043,0.1-0.154,0.143-0.253,0.1l-0.353-0.153c-0.099-0.042-0.143-0.152-0.11-0.257
		c0.171-0.515,0.105-0.935-0.04-1.353c-0.033-0.105-0.141-0.218-0.239-0.26l-3.719-1.616c-0.1-0.044-0.144-0.153-0.1-0.253
		l0.157-0.362c0.043-0.1,0.154-0.144,0.253-0.101l5.017,2.18c0.1,0.045,0.143,0.154,0.1,0.254l-0.158,0.363
		c-0.042,0.098-0.153,0.142-0.252,0.099l-0.188-0.081C381.723,288.988,381.729,289.487,381.532,290.029z"/>
	<path d="M375.454,292.901c-0.846-0.63-1.101-1.621-0.656-2.578c0.443-0.959,1.365-1.404,2.396-1.178
		c1.303,0.301,2.367,1.084,2.406,1.115l0.011,0.006c0.841,0.641,1.084,1.626,0.64,2.584c-0.438,0.947-1.348,1.398-2.381,1.171
		l-0.01-0.005C377.812,294.007,376.524,293.702,375.454,292.901z M378.036,293.265c0.951,0.203,1.371-0.448,1.508-0.742
		c0.137-0.293,0.366-1.047-0.408-1.631c-0.027-0.025-0.987-0.723-2.122-0.983c-0.946-0.214-1.372,0.448-1.509,0.742
		c-0.136,0.294-0.365,1.047,0.408,1.63C376.847,292.978,377.993,293.245,378.036,293.265z"/>
	<path d="M375.36,299.032c-0.049-0.011-1.314-0.352-2.369-1.191c-0.824-0.656-1.049-1.654-0.574-2.598
		c0.254-0.504,0.625-0.787,1.006-0.985l-0.161-0.081c-0.097-0.048-0.134-0.161-0.085-0.258l0.178-0.354
		c0.049-0.096,0.161-0.134,0.258-0.086l6.625,3.332c0.096,0.048,0.133,0.16,0.084,0.257l-0.177,0.354
		c-0.049,0.096-0.161,0.134-0.258,0.085l-1.908-0.96c0.079,0.43,0.063,0.891-0.19,1.395
		C377.313,298.886,376.379,299.303,375.36,299.032z M373.476,297.226c0.932,0.736,2.074,1.056,2.09,1.051
		c0.934,0.254,1.381-0.395,1.525-0.684c0.227-0.45,0.158-0.875,0.02-1.32c-0.037-0.112-0.139-0.23-0.236-0.279l-2.337-1.175
		c-0.096-0.049-0.263-0.064-0.364-0.022c-0.451,0.15-0.832,0.348-1.059,0.797C372.969,295.883,372.715,296.628,373.476,297.226z"/>
	<path d="M371.372,302.993l1.625-2.994c-0.248-0.121-0.518-0.227-0.81-0.317c-0.931-0.272-1.397,0.36-1.552,0.646
		c-0.132,0.242-0.344,0.811,0.04,1.359c0.062,0.088,0.084,0.223,0.032,0.318l-0.2,0.369c-0.052,0.095-0.16,0.117-0.237,0.035
		c-0.659-0.673-0.783-1.6-0.32-2.453c0.504-0.929,1.451-1.314,2.466-1.023c1.28,0.381,2.294,1.231,2.329,1.266l0.012,0.005
		c0.797,0.692,0.979,1.691,0.475,2.62c-0.497,0.916-1.434,1.309-2.449,1.017l-0.011-0.005c-0.037-0.008-0.621-0.188-1.327-0.571
		C371.349,303.212,371.321,303.088,371.372,302.993z M373.672,300.392l-1.328,2.446c0.358,0.167,0.631,0.247,0.651,0.259
		c0.936,0.262,1.396-0.361,1.551-0.646c0.155-0.285,0.432-1.021-0.303-1.652C374.222,300.786,374.008,300.603,373.672,300.392z"/>
	<path d="M372.476,307.724c-0.055,0.094-0.17,0.125-0.264,0.07l-0.332-0.191c-0.094-0.054-0.125-0.168-0.081-0.268
		c0.228-0.492,0.21-0.918,0.111-1.35c-0.021-0.108-0.115-0.232-0.21-0.285l-3.516-2.025c-0.094-0.054-0.125-0.168-0.07-0.262
		l0.197-0.344c0.055-0.094,0.169-0.124,0.262-0.07l4.745,2.73c0.093,0.055,0.124,0.169,0.07,0.262l-0.198,0.344
		c-0.053,0.094-0.168,0.125-0.262,0.07l-0.177-0.102C372.782,306.71,372.731,307.206,372.476,307.724z"/>
	<path d="M371.706,311.122c0.174-0.287,0.107-0.595,0.05-0.756c-0.097-0.281-0.298-0.529-0.554-0.685l-0.707,1.171
		c-0.056,0.094-0.171,0.121-0.264,0.066l-0.329-0.199c-0.093-0.055-0.132-0.177-0.075-0.27l0.707-1.172l-4.172-2.518
		c-0.092-0.055-0.121-0.17-0.064-0.263l0.204-0.339c0.056-0.094,0.171-0.121,0.265-0.065l4.17,2.517l0.404-0.667
		c0.055-0.093,0.181-0.115,0.273-0.06l0.328,0.199c0.093,0.056,0.121,0.171,0.065,0.264l-0.403,0.668
		c0.411,0.248,0.729,0.649,0.893,1.099c0.165,0.492,0.125,1.001-0.123,1.411l-0.205,0.34c-0.055,0.092-0.17,0.121-0.264,0.064
		l-0.338-0.204c-0.094-0.056-0.121-0.171-0.065-0.264L371.706,311.122z"/>
	<path d="M365.788,310.141c-0.273-0.173-0.717-0.167-0.89,0.106l-0.115,0.184c-0.058,0.092-0.173,0.117-0.265,0.061l-0.336-0.211
		c-0.091-0.058-0.117-0.174-0.06-0.265l0.114-0.183c0.429-0.682,1.367-0.73,1.967-0.354l5.193,3.266
		c0.092,0.057,0.118,0.174,0.061,0.265l-0.211,0.335c-0.057,0.092-0.173,0.119-0.265,0.061L365.788,310.141z"/>
	<path d="M366.313,316.704c-0.43,0.104-0.859-0.008-1.359-0.338l-3.32-2.195c-0.09-0.061-0.113-0.176-0.055-0.266l0.219-0.33
		c0.059-0.091,0.176-0.114,0.266-0.055l0.23,0.152c-0.018-0.17-0.008-0.336,0.004-0.486c0.081-0.622,0.383-1.1,0.395-1.119
		l0.106-0.16c0.476-0.72,1.45-0.91,2.161-0.439l0.1,0.064c0.66,0.438,0.865,1.063,0.622,1.864l-0.559,1.759
		c0,0.043-0.089,0.33,0.132,0.475l0.13,0.086c0.56,0.371,0.903,0.396,1.452-0.435c0.495-0.75,0.422-1.071-0.01-1.399
		c-0.083-0.07-0.106-0.187-0.047-0.276l0.218-0.33c0.06-0.09,0.177-0.114,0.259-0.044c0.407,0.297,0.622,0.626,0.689,1.002
		c0.062,0.428-0.076,0.897-0.459,1.479C367.109,316.282,366.731,316.593,366.313,316.704z M363.784,314.658l0.57,0.377
		c0.016-0.047,0.022-0.101,0.043-0.13l0.535-1.745c0.168-0.536-0.004-0.778-0.304-0.977l-0.101-0.066
		c-0.35-0.231-0.841-0.14-1.079,0.221l-0.106,0.16c0,0-0.221,0.356-0.275,0.81C363.017,313.862,363.243,314.301,363.784,314.658z
		 M367.623,316.636c0.06-0.09,0.177-0.113,0.266-0.055l0.331,0.219c0.09,0.059,0.113,0.176,0.054,0.266l-0.218,0.33
		c-0.061,0.09-0.176,0.113-0.266,0.055l-0.331-0.219c-0.09-0.059-0.114-0.176-0.054-0.266L367.623,316.636z M368.522,315.274
		c0.06-0.09,0.183-0.123,0.273-0.063l0.329,0.218c0.091,0.061,0.106,0.186,0.048,0.275l-0.212,0.32
		c-0.06,0.091-0.175,0.114-0.266,0.055l-0.329-0.218c-0.092-0.06-0.115-0.177-0.056-0.267L368.522,315.274z"/>
	<path d="M359.897,318.069c0.023,0.133,0.061,0.351,0.222,0.537c0.058,0.086,0.089,0.21,0.026,0.299l-0.223,0.313
		c-0.062,0.089-0.195,0.111-0.27,0.03c-0.307-0.275-0.486-0.666-0.531-1.123c-0.037-0.467,0.099-0.975,0.369-1.356
		c0.608-0.863,1.595-1.138,2.563-0.72c1.236,0.518,2.137,1.49,2.18,1.535c0.719,0.771,0.782,1.785,0.174,2.648
		c-0.27,0.383-0.7,0.682-1.153,0.803c-0.437,0.119-0.874,0.074-1.235-0.121c-0.103-0.043-0.115-0.17-0.053-0.258l0.221-0.314
		c0.062-0.088,0.18-0.108,0.288-0.076c0.221,0.083,0.448,0.053,0.572,0.021c0.288-0.075,0.55-0.258,0.723-0.504
		c0.187-0.266,0.548-0.965-0.109-1.678c-0.01-0.007-0.833-0.881-1.904-1.342c-0.902-0.387-1.44,0.189-1.627,0.455
		C359.956,317.464,359.881,317.778,359.897,318.069z"/>
	<path d="M360.427,325.235c-0.441,0.209-1.145,0.326-1.959-0.287l-2.992-2.249c-0.087-0.065-0.104-0.183-0.039-0.269l0.238-0.316
		c0.064-0.086,0.182-0.104,0.269-0.038l2.992,2.249c0.403,0.303,0.782,0.377,1.145,0.214c0.29-0.126,0.479-0.359,0.487-0.368
		l0.064-0.087c0.303-0.403,0.304-0.823,0.246-1.286c-0.007-0.109-0.086-0.244-0.172-0.309l-3.242-2.438
		c-0.086-0.064-0.104-0.182-0.037-0.268l0.236-0.316c0.066-0.087,0.184-0.104,0.27-0.039l5.928,4.455
		c0.086,0.064,0.103,0.182,0.037,0.268l-0.238,0.316c-0.064,0.087-0.182,0.104-0.259,0.046c-0.087-0.064-1.707-1.282-1.707-1.282
		c-0.008,0.43-0.106,0.879-0.438,1.32l-0.065,0.087C361.161,324.677,360.886,325.024,360.427,325.235z"/>
	<path d="M354.057,328.382l2.13-2.66c-0.223-0.164-0.471-0.315-0.742-0.457c-0.867-0.432-1.439,0.109-1.642,0.361
		c-0.173,0.217-0.481,0.736-0.201,1.346c0.045,0.098,0.044,0.234-0.024,0.318l-0.262,0.328c-0.068,0.085-0.179,0.088-0.24-0.008
		c-0.53-0.777-0.488-1.713,0.119-2.471c0.66-0.825,1.66-1.038,2.608-0.571c1.193,0.602,2.04,1.618,2.069,1.657l0.01,0.008
		c0.664,0.822,0.665,1.838,0.006,2.663c-0.652,0.815-1.645,1.035-2.593,0.569l-0.009-0.008c-0.036-0.014-0.58-0.295-1.207-0.797
		C353.995,328.593,353.989,328.466,354.057,328.382z M356.78,326.228l-1.74,2.173c0.324,0.229,0.578,0.354,0.596,0.37
		c0.875,0.424,1.439-0.109,1.643-0.361c0.203-0.254,0.605-0.93-0.007-1.682C357.253,326.712,357.074,326.493,356.78,326.228z"/>
</g>
<g>
	<path d="M321.955,359.183c0.084-0.067,0.229-0.077,0.318-0.025l6.37,3.646l0.093-0.075l-4.29-5.311
		c-0.068-0.084-0.056-0.202,0.028-0.27l0.308-0.249c0.084-0.067,0.202-0.056,0.271,0.028l4.66,5.768
		c0.067,0.084,0.055,0.202-0.028,0.27l-0.813,0.656c-0.084,0.067-0.229,0.078-0.327,0.033l-6.361-3.652l-0.093,0.075l4.29,5.311
		c0.068,0.083,0.046,0.209-0.038,0.276l-0.299,0.241c-0.084,0.068-0.201,0.056-0.27-0.028l-4.66-5.767
		c-0.068-0.084-0.055-0.202,0.029-0.27L321.955,359.183z"/>
	<path d="M320.47,367.251c-0.441-0.045-0.809-0.295-1.169-0.774l-2.396-3.185c-0.064-0.087-0.048-0.204,0.038-0.27l0.316-0.238
		c0.087-0.064,0.205-0.048,0.27,0.039l0.166,0.22c0.041-0.166,0.105-0.319,0.167-0.456c0.285-0.561,0.729-0.909,0.749-0.924
		l0.152-0.115c0.691-0.52,1.674-0.372,2.186,0.31l0.072,0.096c0.477,0.633,0.461,1.292-0.037,1.967l-1.117,1.471
		c-0.015,0.041-0.194,0.281-0.035,0.493l0.094,0.124c0.403,0.537,0.719,0.676,1.515,0.077c0.72-0.541,0.758-0.871,0.462-1.324
		c-0.056-0.094-0.039-0.211,0.047-0.275l0.317-0.238c0.086-0.065,0.204-0.049,0.259,0.045c0.284,0.418,0.376,0.799,0.314,1.176
		c-0.086,0.426-0.374,0.822-0.93,1.241C321.362,367.12,320.901,367.286,320.47,367.251z M318.77,364.473l0.412,0.547
		c0.03-0.038,0.055-0.086,0.083-0.108l1.091-1.467c0.337-0.449,0.258-0.734,0.042-1.021l-0.072-0.097
		c-0.253-0.335-0.748-0.415-1.094-0.154l-0.152,0.115c0,0-0.329,0.263-0.532,0.671C318.313,363.465,318.38,363.954,318.77,364.473z"
		/>
	<path d="M314.472,364.796c0.089-0.063,0.234-0.063,0.31,0.002l4.008,2.854c0.085,0.059,0.201,0.182,0.264,0.27l0.263,0.373
		c0.063,0.088,0.041,0.205-0.047,0.268l-0.323,0.228c-0.088,0.063-0.205,0.042-0.268-0.046l-0.297-0.422l-3.754-2.682l-0.186,0.131
		l1.263,4.438l0.297,0.421c0.063,0.089,0.042,0.206-0.047,0.268l-0.323,0.229c-0.088,0.062-0.205,0.042-0.267-0.046l-0.263-0.373
		c-0.063-0.089-0.14-0.239-0.165-0.339l-1.341-4.733c-0.026-0.1,0.014-0.23,0.102-0.293L314.472,364.796z"/>
	<path d="M313.456,372.349l-3.041-4.532c-0.061-0.09-0.037-0.206,0.053-0.267l0.329-0.221c0.089-0.06,0.206-0.037,0.266,0.052
		l2.714,4.045l0.647-0.435c0.089-0.061,0.213-0.027,0.272,0.063l0.214,0.318c0.061,0.09,0.038,0.207-0.052,0.267l-1.136,0.762
		C313.634,372.461,313.517,372.438,313.456,372.349z M314.325,373.644l-0.214-0.319c-0.061-0.09-0.044-0.216,0.046-0.276l0.328-0.22
		c0.09-0.062,0.213-0.027,0.273,0.062l0.214,0.318c0.061,0.091,0.037,0.207-0.053,0.268l-0.329,0.221
		C314.502,373.756,314.385,373.732,314.325,373.644z"/>
	<path d="M308.353,374.939l0.213-0.135l0.136-0.144c-0.296-0.152-0.554-0.401-0.772-0.745c-0.645-1.013-0.376-2.065,0.696-2.748
		c0.243-0.154,0.485-0.266,0.726-0.334c0.146-0.15,0.149-0.28,0.135-0.37c-0.008-0.123-0.055-0.221-0.055-0.221
		c-0.091-0.142-0.205-0.211-0.348-0.233c-0.114,0.001-0.218,0.038-0.234,0.034l-0.01,0.007l-1.903,0.742
		c-0.218,0.082-0.576,0.168-0.938,0.044c-0.309-0.104-0.569-0.336-0.814-0.72c-0.258-0.405-0.299-0.849-0.112-1.294
		c0.195-0.452,0.601-0.866,1.248-1.278c0.647-0.413,1.205-0.61,1.688-0.591c0.481,0.021,0.866,0.245,1.124,0.65
		c0.283,0.445,0.334,0.882,0.164,1.331c-0.038,0.096-0.087,0.198-0.162,0.303c0.326,0.021,0.692,0.171,0.956,0.586
		c0.026,0.04,0.151,0.259,0.188,0.563c0.003,0.14-0.003,0.286-0.032,0.418c0.453,0.11,0.856,0.408,1.166,0.894
		c0.335,0.526,0.439,1.071,0.292,1.577c-0.142,0.447-0.477,0.859-0.983,1.182c-0.385,0.244-0.77,0.375-1.14,0.398l-0.368,0.404
		c-0.078,0.078-0.207,0.188-0.298,0.247l-0.142,0.091c-0.092,0.057-0.218,0.038-0.275-0.054l-0.206-0.323
		C308.232,375.131,308.262,374.998,308.353,374.939z M306.682,370.059l1.084-0.42c1.009-0.94,0.925-1.271,0.706-1.616
		c-0.115-0.182-0.277-0.278-0.493-0.283s-0.613,0.063-1.241,0.463c-0.627,0.399-0.857,0.731-0.945,0.93
		c-0.087,0.197-0.067,0.384,0.049,0.566C306.144,370.174,306.343,370.175,306.682,370.059z M308.586,373.497
		c0.419,0.657,0.996,0.76,1.715,0.303c0.718-0.457,0.87-1.023,0.451-1.682c-0.213-0.334-0.459-0.519-0.761-0.568
		c-0.278-0.035-0.603,0.057-0.947,0.276c-0.344,0.219-0.565,0.474-0.651,0.741C308.31,372.862,308.374,373.163,308.586,373.497z"/>
	<path d="M304.581,377.704c-0.432-0.093-0.77-0.379-1.076-0.896l-2.037-3.425c-0.055-0.094-0.025-0.208,0.067-0.264l0.341-0.202
		c0.093-0.055,0.208-0.026,0.264,0.067l0.141,0.237c0.059-0.161,0.139-0.307,0.216-0.436c0.343-0.526,0.822-0.824,0.843-0.837
		l0.165-0.098c0.743-0.441,1.703-0.189,2.139,0.544l0.062,0.103c0.404,0.681,0.317,1.333-0.251,1.95l-1.269,1.341
		c-0.02,0.039-0.225,0.259-0.089,0.485l0.079,0.134c0.344,0.579,0.642,0.75,1.497,0.241c0.774-0.46,0.849-0.782,0.603-1.265
		c-0.045-0.1-0.016-0.215,0.077-0.27l0.341-0.202c0.093-0.056,0.208-0.026,0.252,0.072c0.237,0.445,0.287,0.835,0.186,1.203
		c-0.132,0.413-0.46,0.776-1.059,1.132C305.483,377.671,305.007,377.786,304.581,377.704z M303.194,374.759l0.35,0.588
		c0.035-0.034,0.063-0.08,0.095-0.098l1.242-1.339c0.385-0.41,0.337-0.703,0.152-1.013l-0.062-0.103
		c-0.215-0.361-0.697-0.493-1.069-0.271l-0.165,0.098c0,0-0.354,0.225-0.601,0.608C302.849,373.708,302.862,374.202,303.194,374.759
		z"/>
	<path d="M300.386,379.579l1.193-0.668l-1.559-2.785c-0.146-0.263-0.387-0.471-0.666-0.576c-0.152-0.053-0.463-0.14-0.757,0.024
		l-0.345,0.192c-0.095,0.053-0.209,0.021-0.262-0.073l-0.188-0.335c-0.053-0.094-0.026-0.219,0.067-0.271l0.347-0.193
		c0.418-0.234,0.928-0.258,1.42-0.066c0.438,0.168,0.828,0.499,1.063,0.918l1.559,2.784l0.681-0.38
		c0.095-0.053,0.215-0.011,0.268,0.084l0.187,0.335c0.053,0.094,0.021,0.209-0.073,0.261l-0.681,0.381l0.668,1.194
		c0.053,0.094,0.021,0.208-0.074,0.261l-0.345,0.193c-0.095,0.053-0.208,0.021-0.261-0.074l-0.669-1.193l-1.193,0.668
		c-0.094,0.053-0.209,0.021-0.261-0.074l-0.188-0.335C300.265,379.756,300.29,379.631,300.386,379.579z"/>
	<path d="M298.483,381.267l-2.572-4.818c-0.051-0.096-0.016-0.209,0.079-0.26l0.35-0.187c0.095-0.051,0.209-0.017,0.261,0.079
		l2.294,4.299l0.688-0.367c0.096-0.051,0.215-0.006,0.266,0.089l0.182,0.339c0.05,0.096,0.016,0.21-0.08,0.261l-1.207,0.645
		C298.648,381.396,298.534,381.361,298.483,381.267z M299.219,382.644l-0.181-0.339c-0.051-0.096-0.022-0.22,0.073-0.271
		l0.349-0.188c0.096-0.051,0.215-0.006,0.266,0.09l0.182,0.339c0.051,0.096,0.016,0.209-0.079,0.261l-0.35,0.186
		C299.384,382.773,299.27,382.738,299.219,382.644z"/>
	<path d="M291.687,380.188c-0.271-1.02,0.145-1.955,1.088-2.431s1.942-0.253,2.611,0.566c0.836,1.044,1.184,2.321,1.194,2.369
		l0.005,0.011c0.262,1.024-0.16,1.949-1.103,2.426c-0.933,0.47-1.927,0.258-2.595-0.562l-0.006-0.011
		C292.849,382.521,292.03,381.481,291.687,380.188z M293.487,382.078c0.619,0.75,1.354,0.501,1.644,0.354
		c0.289-0.146,0.938-0.594,0.692-1.533c-0.005-0.037-0.326-1.18-1.054-2.09c-0.608-0.755-1.354-0.5-1.645-0.354
		c-0.289,0.146-0.937,0.594-0.692,1.532C292.731,381.114,293.465,382.035,293.487,382.078z"/>
	<path d="M289.328,385.813c-0.488-0.024-1.164-0.253-1.595-1.177l-1.581-3.394c-0.045-0.098-0.005-0.209,0.093-0.255l0.359-0.168
		c0.099-0.045,0.209-0.004,0.255,0.094l1.581,3.394c0.213,0.456,0.512,0.701,0.908,0.728c0.316,0.025,0.594-0.09,0.604-0.096
		l0.098-0.045c0.456-0.213,0.655-0.584,0.822-1.02c0.046-0.101,0.04-0.256-0.006-0.354l-1.712-3.676
		c-0.047-0.098-0.006-0.209,0.092-0.255l0.359-0.167c0.098-0.046,0.209-0.005,0.255,0.093l2.306,4.949
		c0.045,0.098,0.005,0.209-0.093,0.255l-0.358,0.167c-0.099,0.045-0.205,0.016-0.251-0.082c-0.04-0.088-0.075-0.164-0.075-0.164
		c-0.209,0.376-0.51,0.728-1.01,0.961l-0.098,0.045C290.239,385.666,289.831,385.843,289.328,385.813z"/>
</g>
<g>
	<path d="M217.601,401.66c-0.233-0.273-0.351-0.603-0.376-0.998c-0.046-0.719,0.136-1.271,0.557-1.659
		c0.374-0.349,0.915-0.551,1.646-0.598c0.719-0.046,1.279,0.086,1.696,0.385c0.416,0.298,0.674,0.763,0.75,1.383
		c0.019,0.107-0.072,0.197-0.18,0.204l-0.384,0.024c-0.107,0.008-0.197-0.071-0.216-0.178c-0.085-0.584-0.384-1.119-1.618-1.04
		c-1.377,0.088-1.515,0.77-1.473,1.429c0.026,0.396,0.164,0.676,0.835,1.018l2.135,1.031c0.185,0.071,0.98,0.478,1.042,1.448
		c0.045,0.694-0.104,1.209-0.439,1.592c-0.348,0.395-0.889,0.598-1.643,0.646c-0.767,0.049-1.328-0.083-1.724-0.431
		c-0.344-0.304-0.552-0.735-0.614-1.333c-0.019-0.107,0.072-0.197,0.18-0.203l0.383-0.025c0.108-0.006,0.197,0.072,0.217,0.18
		c0.08,0.705,0.407,1.104,1.509,1.034c1.198-0.076,1.405-0.595,1.354-1.409c-0.033-0.527-0.493-0.751-0.579-0.781l-2.172-1.053
		C218.075,402.111,217.797,401.9,217.601,401.66z"/>
	<path d="M215.084,398.884c0.438,0.214,0.97,0.689,1.002,1.708l0.117,3.741c0.004,0.107-0.077,0.193-0.186,0.197l-0.396,0.012
		c-0.107,0.004-0.194-0.077-0.197-0.186l-0.118-3.74c-0.017-0.504-0.194-0.834-0.549-1.027c-0.28-0.146-0.58-0.149-0.593-0.148
		l-0.107,0.003c-0.504,0.017-0.832,0.278-1.169,0.613c-0.069,0.073-0.124,0.231-0.122,0.34l0.128,4.04
		c0.003,0.108-0.078,0.195-0.186,0.198l-0.396,0.013c-0.107,0.004-0.194-0.078-0.198-0.187l-0.171-5.455
		c-0.003-0.107,0.077-0.194,0.186-0.198l0.396-0.013c0.107-0.003,0.193,0.079,0.197,0.175c0.003,0.107,0.005,0.191,0.005,0.191
		c0.34-0.274,0.754-0.479,1.305-0.497l0.108-0.003C214.188,398.659,214.62,398.657,215.084,398.884z"/>
	<path d="M207.734,399.832c-0.097,0.096-0.252,0.252-0.312,0.492c-0.036,0.096-0.12,0.192-0.229,0.192h-0.384
		c-0.108,0-0.204-0.096-0.181-0.204c0.049-0.408,0.264-0.78,0.612-1.081c0.359-0.301,0.852-0.48,1.32-0.48
		c1.056-0.001,1.849,0.647,2.065,1.68c0.289,1.309,0.014,2.604,0.002,2.665c-0.216,1.032-1.008,1.669-2.064,1.67
		c-0.469,0-0.961-0.181-1.321-0.479c-0.348-0.288-0.564-0.672-0.612-1.08c-0.023-0.108,0.072-0.193,0.18-0.192h0.385
		c0.107,0,0.191,0.084,0.228,0.191c0.061,0.229,0.217,0.396,0.313,0.479c0.229,0.192,0.528,0.301,0.829,0.301
		c0.324,0,1.104-0.109,1.308-1.057c-0.001-0.013,0.239-1.189-0.001-2.33c-0.205-0.96-0.984-1.067-1.31-1.067
		C208.263,399.531,207.962,399.651,207.734,399.832z"/>
	<path d="M202.203,404.399c-0.425-0.24-0.927-0.748-0.896-1.768l0.111-3.741c0.003-0.107,0.089-0.189,0.197-0.187l0.396,0.013
		c0.108,0.003,0.189,0.089,0.187,0.197l-0.111,3.741c-0.016,0.504,0.143,0.855,0.484,1.059c0.271,0.164,0.57,0.186,0.582,0.185
		l0.108,0.004c0.504,0.015,0.847-0.228,1.192-0.541c0.086-0.069,0.15-0.212,0.154-0.319l0.119-4.053
		c0.004-0.107,0.09-0.189,0.197-0.187l0.396,0.012c0.107,0.003,0.189,0.09,0.186,0.198l-0.22,7.41
		c-0.003,0.107-0.09,0.189-0.197,0.186l-0.396-0.012c-0.108-0.002-0.189-0.089-0.187-0.186c0.003-0.107,0.063-2.135,0.063-2.135
		c-0.354,0.242-0.78,0.422-1.332,0.405l-0.107-0.003C203.083,404.677,202.64,404.651,202.203,404.399z"/>
	<path d="M195.94,400.999l3.4,0.209c0.005-0.276-0.013-0.566-0.055-0.869c-0.146-0.959-0.917-1.113-1.24-1.134
		c-0.275-0.017-0.879,0.03-1.215,0.61c-0.055,0.094-0.167,0.171-0.275,0.164l-0.418-0.025c-0.108-0.007-0.175-0.095-0.133-0.2
		c0.33-0.882,1.118-1.387,2.088-1.327c1.055,0.065,1.805,0.76,1.969,1.804c0.196,1.321-0.147,2.599-0.162,2.646v0.013
		c-0.291,1.015-1.119,1.602-2.174,1.537c-1.041-0.063-1.793-0.747-1.957-1.791l0.001-0.012c-0.01-0.036-0.093-0.642-0.044-1.444
		C195.732,401.071,195.833,400.993,195.94,400.999z M199.27,401.984l-2.777-0.171c-0.001,0.397,0.042,0.676,0.041,0.7
		c0.157,0.959,0.917,1.114,1.24,1.134s1.108-0.04,1.37-0.975C199.145,402.649,199.222,402.378,199.27,401.984z"/>
</g>
<g>
	<path d="M126.578,388.566c-0.078,0.083-0.211,0.113-0.31,0.068l-0.882-0.407c-0.098-0.045-0.161-0.166-0.149-0.279l1.003-6.79
		c0.007-0.103,0.061-0.276,0.106-0.374l0.186-0.402c0.045-0.099,0.157-0.141,0.255-0.095l0.359,0.166
		c0.098,0.045,0.139,0.157,0.094,0.255l-0.221,0.479l-0.242,1.672l2.669,1.23l1.114-1.27l0.221-0.48
		c0.045-0.098,0.157-0.139,0.255-0.093l0.359,0.165c0.098,0.046,0.139,0.158,0.094,0.256l-0.186,0.402
		c-0.045,0.099-0.143,0.252-0.215,0.324L126.578,388.566z M126.247,387.766l2.667-3.063l-2.255-1.04l-0.598,4.019L126.247,387.766z"
		/>
	<path d="M119.842,382.486l0.225,0.112l0.193,0.043c-0.021-0.332,0.059-0.681,0.242-1.045c0.537-1.074,1.578-1.385,2.715-0.816
		c0.258,0.13,0.478,0.279,0.66,0.451c0.204,0.049,0.316-0.016,0.386-0.074c0.102-0.07,0.161-0.162,0.161-0.162
		c0.075-0.149,0.075-0.283,0.021-0.418c-0.059-0.097-0.145-0.166-0.15-0.182l-0.011-0.006l-1.614-1.25
		c-0.183-0.146-0.44-0.408-0.521-0.783c-0.07-0.316-0.005-0.66,0.199-1.068c0.214-0.428,0.574-0.691,1.052-0.762
		c0.488-0.064,1.052,0.07,1.738,0.414s1.142,0.719,1.373,1.143c0.231,0.424,0.236,0.869,0.021,1.299
		c-0.236,0.472-0.585,0.74-1.057,0.826c-0.101,0.016-0.215,0.026-0.343,0.016c0.15,0.289,0.209,0.682-0.011,1.121
		c-0.021,0.043-0.145,0.264-0.386,0.45c-0.118,0.075-0.247,0.146-0.375,0.188c0.139,0.445,0.091,0.943-0.167,1.459
		c-0.279,0.558-0.692,0.928-1.202,1.063c-0.456,0.107-0.982,0.031-1.518-0.237c-0.408-0.204-0.719-0.466-0.928-0.772l-0.536-0.107
		c-0.107-0.027-0.269-0.08-0.365-0.129l-0.15-0.075c-0.097-0.048-0.145-0.166-0.097-0.263l0.172-0.344
		C119.617,382.481,119.746,382.438,119.842,382.486z M121.2,381.944c-0.349,0.697-0.14,1.245,0.622,1.626
		c0.761,0.382,1.325,0.22,1.674-0.478c0.176-0.354,0.209-0.659,0.096-0.943c-0.113-0.258-0.359-0.488-0.724-0.671
		s-0.698-0.241-0.971-0.177C121.602,381.382,121.376,381.591,121.2,381.944z M123.168,378.544l0.917,0.713
		c1.326,0.382,1.567,0.141,1.749-0.225c0.097-0.193,0.097-0.381-0.01-0.568c-0.107-0.188-0.37-0.494-1.036-0.826
		c-0.665-0.332-1.067-0.359-1.282-0.333c-0.215,0.026-0.365,0.14-0.462,0.333C122.793,378.142,122.896,378.313,123.168,378.544z"/>
	<path d="M114.991,379.886l0.222,0.12l0.191,0.05c-0.01-0.334,0.081-0.681,0.275-1.039c0.571-1.057,1.622-1.334,2.742-0.729
		c0.253,0.137,0.469,0.294,0.646,0.472c0.202,0.055,0.317-0.007,0.389-0.063c0.104-0.066,0.166-0.155,0.166-0.155
		c0.08-0.147,0.084-0.282,0.035-0.418c-0.056-0.099-0.14-0.171-0.145-0.188l-0.011-0.005l-1.575-1.303
		c-0.178-0.15-0.427-0.422-0.496-0.801c-0.06-0.318,0.016-0.66,0.233-1.062c0.229-0.422,0.596-0.674,1.077-0.729
		c0.49-0.049,1.049,0.104,1.725,0.47c0.676,0.365,1.12,0.756,1.337,1.187c0.217,0.432,0.208,0.878-0.021,1.3
		c-0.251,0.465-0.609,0.722-1.083,0.793c-0.103,0.012-0.215,0.02-0.344,0.005c0.141,0.294,0.187,0.688-0.047,1.12
		c-0.023,0.043-0.153,0.26-0.401,0.439c-0.121,0.071-0.251,0.137-0.382,0.176c0.125,0.45,0.062,0.947-0.213,1.454
		c-0.297,0.55-0.723,0.907-1.237,1.024c-0.459,0.093-0.983,0-1.511-0.285c-0.401-0.217-0.704-0.489-0.904-0.803l-0.533-0.124
		c-0.106-0.03-0.266-0.089-0.361-0.141l-0.148-0.079c-0.095-0.053-0.139-0.172-0.088-0.267l0.183-0.339
		C114.766,379.874,114.896,379.835,114.991,379.886z M116.366,379.388c-0.371,0.686-0.18,1.24,0.57,1.646
		c0.75,0.405,1.319,0.262,1.69-0.425c0.188-0.349,0.23-0.653,0.127-0.941c-0.104-0.261-0.344-0.499-0.703-0.694
		c-0.359-0.193-0.689-0.264-0.966-0.208C116.787,378.837,116.555,379.038,116.366,379.388z M118.445,376.048l0.895,0.744
		c1.313,0.423,1.563,0.189,1.757-0.17c0.103-0.189,0.108-0.379,0.008-0.568c-0.102-0.192-0.355-0.506-1.01-0.861
		c-0.654-0.354-1.056-0.394-1.272-0.373c-0.215,0.02-0.369,0.128-0.472,0.318C118.082,375.634,118.179,375.809,118.445,376.048z"/>
	<path d="M111.541,378.895c-0.094-0.054-0.125-0.169-0.071-0.262l0.191-0.333c0.054-0.094,0.169-0.125,0.268-0.081
		c0.492,0.227,0.917,0.208,1.348,0.109c0.108-0.021,0.232-0.116,0.286-0.209l2.018-3.517c0.053-0.094,0.168-0.124,0.262-0.07
		l0.343,0.197c0.094,0.053,0.125,0.168,0.071,0.262l-2.722,4.743c-0.054,0.094-0.168,0.124-0.262,0.071l-0.343-0.197
		c-0.094-0.054-0.125-0.168-0.071-0.262l0.102-0.178C112.555,379.2,112.058,379.149,111.541,378.895z"/>
	<path d="M108.905,373.452l2.914,1.77c0.133-0.243,0.252-0.508,0.356-0.795c0.318-0.918-0.293-1.414-0.571-1.583
		c-0.236-0.144-0.793-0.382-1.36-0.024c-0.091,0.057-0.228,0.072-0.319,0.016l-0.359-0.218c-0.093-0.056-0.11-0.165-0.024-0.239
		c0.704-0.626,1.637-0.705,2.468-0.201c0.903,0.548,1.244,1.514,0.904,2.515c-0.443,1.262-1.341,2.233-1.377,2.269l-0.006,0.01
		c-0.73,0.764-1.738,0.896-2.641,0.349c-0.893-0.542-1.24-1.497-0.899-2.497l0.006-0.012c0.009-0.036,0.217-0.611,0.634-1.299
		C108.687,373.418,108.812,373.396,108.905,373.452z M111.394,375.876l-2.381-1.445c-0.185,0.351-0.277,0.618-0.29,0.639
		c-0.307,0.923,0.294,1.414,0.571,1.582c0.277,0.168,1,0.48,1.667-0.225C110.973,376.407,111.168,376.202,111.394,375.876z"/>
	<path d="M102.915,372.496l0.211,0.138l0.187,0.064c0.017-0.333,0.136-0.67,0.358-1.013c0.656-1.005,1.725-1.196,2.791-0.502
		c0.241,0.157,0.443,0.331,0.604,0.522c0.198,0.071,0.316,0.02,0.393-0.03c0.11-0.058,0.179-0.142,0.179-0.142
		c0.091-0.141,0.107-0.274,0.068-0.414c-0.047-0.104-0.125-0.182-0.128-0.198l-0.011-0.007l-1.463-1.425
		c-0.165-0.165-0.391-0.456-0.428-0.838c-0.033-0.323,0.07-0.656,0.319-1.038c0.262-0.402,0.649-0.623,1.131-0.639
		c0.492-0.008,1.037,0.189,1.681,0.608s1.054,0.845,1.235,1.292c0.181,0.447,0.136,0.891-0.126,1.292
		c-0.288,0.442-0.665,0.669-1.144,0.701c-0.103,0.005-0.216,0.003-0.343-0.023c0.117,0.306,0.131,0.701-0.138,1.113
		c-0.026,0.04-0.174,0.245-0.435,0.404c-0.126,0.062-0.261,0.116-0.394,0.144c0.088,0.459-0.017,0.949-0.331,1.432
		c-0.341,0.523-0.793,0.845-1.315,0.92c-0.465,0.055-0.979-0.08-1.482-0.407c-0.382-0.249-0.661-0.546-0.834-0.873l-0.521-0.167
		c-0.104-0.039-0.258-0.111-0.348-0.17l-0.141-0.092c-0.09-0.059-0.125-0.182-0.066-0.271l0.209-0.322
		C102.692,372.465,102.824,372.438,102.915,372.496z M104.325,372.112c-0.425,0.652-0.279,1.221,0.435,1.686
		s1.292,0.369,1.717-0.285c0.216-0.332,0.283-0.631,0.203-0.928c-0.083-0.268-0.302-0.525-0.644-0.748
		c-0.341-0.223-0.666-0.318-0.945-0.286C104.79,371.598,104.542,371.78,104.325,372.112z M106.668,368.954l0.831,0.814
		c1.274,0.529,1.541,0.315,1.764-0.025c0.118-0.182,0.139-0.369,0.054-0.566c-0.085-0.199-0.312-0.533-0.935-0.939
		c-0.624-0.406-1.021-0.479-1.237-0.477c-0.216,0.003-0.379,0.098-0.496,0.279C106.34,368.513,106.422,368.694,106.668,368.954z"/>
	<path d="M98.854,370.216c-0.095-0.431,0.026-0.857,0.369-1.35l2.274-3.27c0.062-0.089,0.178-0.109,0.267-0.048l0.325,0.226
		c0.089,0.063,0.109,0.179,0.048,0.268l-0.158,0.227c0.17-0.014,0.336,0,0.485,0.016c0.621,0.096,1.09,0.407,1.11,0.422l0.158,0.109
		c0.709,0.492,0.876,1.471,0.39,2.17l-0.068,0.098c-0.452,0.65-1.082,0.842-1.878,0.58l-1.745-0.6
		c-0.044-0.002-0.328-0.097-0.479,0.119l-0.089,0.129c-0.383,0.551-0.417,0.894,0.401,1.462c0.738,0.513,1.063,0.446,1.4,0.024
		c0.072-0.082,0.188-0.104,0.277-0.041l0.325,0.225c0.088,0.063,0.11,0.18,0.038,0.261c-0.307,0.399-0.641,0.606-1.018,0.666
		c-0.43,0.052-0.896-0.099-1.467-0.495C99.257,371.022,98.955,370.638,98.854,370.216z M100.958,367.735l-0.39,0.562
		c0.046,0.018,0.099,0.025,0.128,0.046l1.732,0.576c0.533,0.18,0.779,0.016,0.984-0.28l0.068-0.099
		c0.24-0.345,0.16-0.838-0.195-1.086l-0.158-0.108c0,0-0.352-0.229-0.802-0.296C101.771,366.986,101.328,367.204,100.958,367.735z"
		/>
	<path d="M95.397,367.169l1.103,0.811l1.89-2.571c0.178-0.241,0.268-0.548,0.249-0.845c-0.016-0.16-0.064-0.479-0.335-0.678
		l-0.319-0.234c-0.087-0.064-0.105-0.182-0.041-0.269l0.227-0.31c0.064-0.086,0.188-0.115,0.275-0.051l0.319,0.234
		c0.387,0.285,0.62,0.738,0.649,1.266c0.028,0.467-0.111,0.961-0.395,1.348l-1.89,2.571l0.628,0.462
		c0.087,0.063,0.098,0.19,0.034,0.277l-0.228,0.311c-0.063,0.086-0.181,0.104-0.268,0.041l-0.628-0.463l-0.81,1.102
		c-0.064,0.088-0.181,0.105-0.268,0.041l-0.319-0.234c-0.087-0.064-0.105-0.182-0.042-0.268l0.81-1.103l-1.102-0.81
		c-0.087-0.064-0.105-0.182-0.041-0.269l0.228-0.31C95.186,367.134,95.311,367.105,95.397,367.169z"/>
	<path d="M92.148,367.394l0.233-0.305c0.065-0.086,0.19-0.111,0.276-0.047l0.314,0.24c0.086,0.066,0.094,0.193,0.029,0.279
		l-0.233,0.305c-0.065,0.086-0.183,0.102-0.269,0.036l-0.314-0.239C92.099,367.597,92.083,367.479,92.148,367.394z M93.095,366.153
		l3.311-4.338c0.066-0.086,0.184-0.102,0.269-0.035l0.315,0.24c0.086,0.064,0.102,0.183,0.037,0.269l-2.956,3.87l0.62,0.475
		c0.085,0.064,0.094,0.191,0.029,0.277l-0.233,0.306c-0.065,0.086-0.183,0.102-0.269,0.036l-1.087-0.83
		C93.045,366.357,93.029,366.239,93.095,366.153z"/>
	<path d="M91.248,359.513c0.814-0.668,1.837-0.678,2.66-0.017c0.824,0.661,1.035,1.662,0.567,2.61
		c-0.604,1.191-1.621,2.037-1.661,2.066l-0.007,0.01c-0.824,0.662-1.839,0.662-2.663,0c-0.814-0.654-1.033-1.646-0.565-2.592
		l0.007-0.01C89.607,361.536,90.213,360.36,91.248,359.513z M90.274,361.933c-0.425,0.875,0.105,1.439,0.358,1.643
		c0.253,0.203,0.929,0.606,1.681-0.005c0.032-0.021,0.938-0.785,1.465-1.823c0.434-0.867-0.106-1.439-0.359-1.643
		c-0.252-0.203-0.928-0.607-1.681,0.004C90.838,360.847,90.304,361.896,90.274,361.933z"/>
	<path d="M85.156,359.7c-0.181-0.454-0.252-1.164,0.41-1.938l2.433-2.844c0.071-0.083,0.188-0.092,0.271-0.021l0.3,0.257
		c0.082,0.07,0.092,0.188,0.021,0.271l-2.433,2.845c-0.328,0.382-0.426,0.757-0.287,1.128c0.109,0.298,0.329,0.502,0.338,0.51
		l0.082,0.07c0.383,0.328,0.802,0.354,1.268,0.327c0.111-0.001,0.25-0.071,0.32-0.153l2.635-3.081
		c0.071-0.082,0.189-0.091,0.271-0.021l0.301,0.257c0.082,0.07,0.091,0.188,0.021,0.271l-3.548,4.148
		c-0.07,0.082-0.189,0.091-0.271,0.021l-0.301-0.257c-0.082-0.07-0.1-0.18-0.029-0.262c0.063-0.073,0.117-0.137,0.117-0.137
		c-0.427-0.035-0.872-0.162-1.291-0.521l-0.082-0.071C85.667,360.468,85.337,360.171,85.156,359.7z"/>
</g>
<g>
	<path d="M46.357,305.933l-0.08-0.133l-6.042,2.132l-0.474,0.284c-0.092,0.056-0.214,0.017-0.27-0.075l-0.198-0.33
		c-0.055-0.093-0.027-0.208,0.065-0.263l0.371-0.224c0.093-0.055,0.243-0.131,0.348-0.167l6.356-2.236
		c0.104-0.035,0.232,0.014,0.288,0.106l0.525,0.874c0.056,0.093,0.039,0.229-0.047,0.295l-4.097,3.876l5.34-1.809
		c0.105-0.035,0.232,0.014,0.288,0.107l0.525,0.874c0.056,0.092,0.039,0.228-0.041,0.304l-4.959,4.563
		c-0.08,0.076-0.218,0.173-0.31,0.229l-0.371,0.223c-0.092,0.056-0.208,0.027-0.264-0.065l-0.204-0.34
		c-0.055-0.092-0.027-0.208,0.066-0.264l0.473-0.284l4.712-4.344l-0.074-0.123l-5.865,1.983c-0.104,0.035-0.232-0.014-0.289-0.106
		l-0.321-0.535c-0.056-0.092-0.04-0.229,0.041-0.305L46.357,305.933z"/>
	<path d="M41.275,300.587l1.633,2.993c0.237-0.144,0.472-0.313,0.707-0.509c0.735-0.634,0.456-1.371,0.301-1.654
		c-0.132-0.243-0.494-0.729-1.164-0.706c-0.107,0.005-0.233-0.05-0.285-0.146l-0.201-0.368c-0.052-0.096-0.013-0.198,0.099-0.219
		c0.922-0.189,1.77,0.211,2.236,1.064c0.506,0.928,0.317,1.933-0.48,2.628c-1.017,0.869-2.281,1.259-2.33,1.271l-0.01,0.006
		c-1.016,0.294-1.955-0.096-2.46-1.023c-0.5-0.917-0.321-1.918,0.476-2.612l0.011-0.006c0.026-0.027,0.496-0.421,1.202-0.806
		C41.104,300.448,41.224,300.492,41.275,300.587z M42.212,303.933l-1.334-2.445c-0.336,0.212-0.55,0.396-0.571,0.407
		c-0.729,0.645-0.456,1.371-0.301,1.655s0.624,0.918,1.554,0.643C41.581,304.181,41.853,304.102,42.212,303.933z"/>
	<path d="M37.291,296.37c0.037-0.031,1.063-0.847,2.365-1.196c1.018-0.273,1.953,0.141,2.43,1.083
		c0.255,0.502,0.262,0.969,0.194,1.394l0.161-0.082c0.096-0.048,0.208-0.012,0.257,0.085l0.179,0.354
		c0.048,0.097,0.011,0.209-0.085,0.258l-6.614,3.348c-0.096,0.048-0.208,0.012-0.257-0.085l-0.179-0.354
		c-0.048-0.096-0.011-0.209,0.085-0.257l1.905-0.965c-0.392-0.191-0.753-0.479-1.008-0.982
		C36.247,298.028,36.468,297.029,37.291,296.37z M39.863,295.929c-1.147,0.313-2.082,1.041-2.087,1.057
		c-0.759,0.6-0.504,1.344-0.356,1.633c0.227,0.449,0.609,0.646,1.049,0.799c0.113,0.038,0.268,0.025,0.364-0.023l2.334-1.181
		c0.096-0.049,0.208-0.173,0.234-0.279c0.148-0.452,0.215-0.876-0.012-1.325C41.243,296.319,40.795,295.672,39.863,295.929z"/>
	<path d="M37.134,287.42l0.405-0.183c0.098-0.044,0.209-0.002,0.253,0.097l0.162,0.361c0.045,0.099,0.003,0.21-0.096,0.254
		l-0.482,0.217l-1.281,1.103l1.206,2.682l1.675-0.227l0.481-0.217c0.099-0.044,0.209-0.002,0.254,0.097l0.162,0.361
		c0.015,0.032,0.019,0.07,0.018,0.097l1.386,0.009c0.054,0.003,0.105,0.031,0.131,0.086c0.009,0.022,0.015,0.032,0.014,0.06
		c-0.004,0.08-0.065,0.147-0.146,0.145l-11.14-0.042c-0.092,0.001-0.148-0.065-0.155-0.142c0.003-0.08,0.065-0.147,0.157-0.149
		l1.53,0.01l5.139-4.405C36.881,287.56,37.036,287.465,37.134,287.42z M35.479,289.797l-2.612,2.24l3.626,0.015L35.479,289.797z"/>
	<path d="M35.378,284.121c-0.125-0.052-0.329-0.136-0.574-0.101c-0.103,0.004-0.224-0.037-0.265-0.137l-0.147-0.355
		c-0.041-0.1,0.011-0.226,0.12-0.244c0.396-0.111,0.822-0.055,1.232,0.152c0.415,0.219,0.77,0.604,0.949,1.037
		c0.403,0.977,0.107,1.956-0.764,2.551c-1.099,0.767-2.403,1.007-2.463,1.019c-1.037,0.195-1.927-0.294-2.332-1.271
		c-0.179-0.433-0.2-0.956-0.06-1.404c0.133-0.432,0.405-0.778,0.764-0.979c0.09-0.063,0.205-0.007,0.246,0.093l0.147,0.355
		c0.041,0.1-0.004,0.21-0.09,0.284c-0.188,0.143-0.284,0.352-0.325,0.472c-0.09,0.284-0.076,0.604,0.04,0.881
		c0.124,0.299,0.522,0.979,1.476,0.805c0.012-0.004,1.19-0.232,2.152-0.89c0.81-0.556,0.611-1.318,0.487-1.618
		C35.857,284.495,35.632,284.263,35.378,284.121z"/>
	<path d="M29.828,281.095l0.49,1.277l2.98-1.143c0.28-0.107,0.522-0.315,0.667-0.576c0.073-0.144,0.205-0.438,0.084-0.752
		l-0.142-0.37c-0.038-0.101,0.01-0.209,0.111-0.248l0.359-0.138c0.101-0.038,0.221,0.006,0.259,0.106l0.142,0.37
		c0.172,0.449,0.123,0.956-0.139,1.416c-0.229,0.408-0.612,0.748-1.061,0.92l-2.981,1.144l0.279,0.728
		c0.039,0.102-0.021,0.214-0.122,0.253l-0.358,0.137c-0.101,0.039-0.209-0.01-0.248-0.11l-0.279-0.729l-1.277,0.49
		c-0.101,0.038-0.209-0.011-0.248-0.111l-0.142-0.369c-0.039-0.102,0.009-0.21,0.111-0.249l1.277-0.489l-0.489-1.277
		c-0.039-0.102,0.009-0.21,0.11-0.248l0.358-0.137C29.67,280.95,29.79,280.994,29.828,281.095z"/>
	<path d="M26.967,279.513l0.361-0.131c0.102-0.036,0.221,0.011,0.257,0.111l0.135,0.373c0.037,0.102-0.024,0.212-0.125,0.249
		l-0.361,0.131c-0.102,0.037-0.209-0.014-0.246-0.114l-0.135-0.372C26.815,279.657,26.866,279.55,26.967,279.513z M28.433,278.981
		l5.132-1.859c0.102-0.037,0.209,0.014,0.246,0.114l0.134,0.373c0.037,0.101-0.013,0.209-0.114,0.246l-4.58,1.659l0.266,0.733
		c0.037,0.102-0.025,0.213-0.126,0.25l-0.361,0.131c-0.101,0.037-0.208-0.015-0.245-0.115l-0.467-1.286
		C28.282,279.126,28.332,279.019,28.433,278.981z"/>
	<path d="M30.459,272.389c1.047-0.124,1.913,0.42,2.249,1.42c0.337,1.002-0.025,1.958-0.931,2.503
		c-1.151,0.679-2.463,0.841-2.513,0.846l-0.011,0.003c-1.05,0.113-1.906-0.435-2.242-1.437c-0.333-0.989,0.018-1.941,0.923-2.486
		l0.011-0.004C27.988,273.206,29.131,272.543,30.459,272.389z M28.334,273.899c-0.83,0.507-0.688,1.27-0.584,1.576
		c0.103,0.308,0.454,1.013,1.417,0.903c0.038,0,1.214-0.155,2.218-0.745c0.833-0.496,0.687-1.27,0.583-1.576
		c-0.103-0.307-0.454-1.012-1.417-0.902C29.395,273.29,28.38,273.885,28.334,273.899z"/>
	<path d="M25.238,269.263c0.094-0.479,0.417-1.116,1.394-1.409l3.585-1.077c0.104-0.031,0.208,0.025,0.239,0.128l0.114,0.38
		c0.03,0.104-0.025,0.208-0.129,0.239l-3.586,1.078c-0.483,0.144-0.768,0.405-0.852,0.794c-0.07,0.31,0.005,0.6,0.008,0.611
		l0.032,0.104c0.145,0.482,0.482,0.732,0.89,0.961c0.093,0.06,0.249,0.075,0.352,0.045l3.885-1.168
		c0.103-0.03,0.208,0.025,0.239,0.129l0.114,0.38c0.031,0.103-0.025,0.208-0.128,0.238l-5.229,1.572
		c-0.104,0.03-0.208-0.026-0.239-0.13l-0.114-0.379c-0.031-0.104,0.014-0.205,0.117-0.235c0.092-0.028,0.172-0.052,0.172-0.052
		c-0.341-0.261-0.646-0.607-0.805-1.137l-0.031-0.104C25.252,270.186,25.136,269.757,25.238,269.263z"/>
	<path d="M26.403,263.648c0.073-0.654,0.461-1.106,1.077-1.271c0.719-0.193,1.196,0.015,1.474,0.214
		c0.331,0.259,0.588,0.662,0.735,1.207c0.146,0.545,0.125,1.023-0.031,1.414c-0.121,0.293-0.394,0.665-0.973,0.87
		c-0.102,0.039-0.219-0.029-0.247-0.134l-0.1-0.37c-0.028-0.105,0.043-0.211,0.144-0.25c0.223-0.098,0.372-0.237,0.459-0.422
		c0.089-0.223,0.093-0.534-0.007-0.905s-0.258-0.64-0.448-0.788c-0.2-0.145-0.469-0.172-0.805-0.082
		c-0.185,0.05-0.452,0.171-0.508,0.608c-0.01,0.053-0.047,0.522-0.084,0.893c-0.043,0.534-0.066,0.863-0.074,0.928
		c-0.069,0.578-0.426,1.01-0.959,1.152c-0.765,0.205-1.773,0.153-2.169-1.32l-0.009-0.034c-0.361-1.346,0.316-1.925,1.034-2.167
		c0.102-0.04,0.208,0.031,0.235,0.136l0.1,0.371c0.029,0.104-0.031,0.207-0.132,0.247c-0.532,0.192-0.664,0.538-0.483,1.211
		l0.01,0.035c0.199,0.742,0.528,0.952,1.213,0.768c0.278-0.074,0.364-0.31,0.39-0.49c-0.004-0.061,0.047-0.521,0.069-0.9
		C26.356,264.033,26.395,263.713,26.403,263.648z"/>
</g>
<g>
	<path d="M19.026,200.299c0.298-0.201,0.639-0.278,1.034-0.259c0.719,0.038,1.247,0.282,1.583,0.744
		c0.303,0.413,0.441,0.973,0.403,1.704c-0.038,0.718-0.234,1.261-0.578,1.639c-0.346,0.378-0.836,0.581-1.461,0.584
		c-0.108,0.007-0.188-0.094-0.182-0.201l0.02-0.383c0.006-0.108,0.094-0.188,0.203-0.194c0.589-0.017,1.154-0.252,1.219-1.486
		c0.072-1.377-0.589-1.593-1.248-1.627c-0.396-0.021-0.689,0.084-1.106,0.711l-1.271,2c-0.093,0.176-0.589,0.918-1.559,0.868
		c-0.695-0.037-1.189-0.243-1.529-0.621c-0.353-0.391-0.49-0.951-0.451-1.706c0.04-0.767,0.236-1.31,0.628-1.661
		c0.341-0.306,0.793-0.462,1.393-0.455c0.109-0.006,0.188,0.094,0.183,0.202l-0.021,0.383c-0.006,0.108-0.094,0.187-0.202,0.193
		c-0.709-0.001-1.145,0.276-1.201,1.378c-0.064,1.198,0.427,1.464,1.242,1.507c0.526,0.028,0.801-0.402,0.842-0.484l1.296-2.034
		C18.523,200.717,18.765,200.465,19.026,200.299z"/>
	<path d="M15.084,197.222l0.383,0.03c0.107,0.008,0.197,0.1,0.188,0.207l-0.03,0.396c-0.009,0.107-0.111,0.184-0.219,0.175
		L15.023,198c-0.107-0.009-0.186-0.099-0.177-0.207l0.03-0.395C14.886,197.291,14.977,197.213,15.084,197.222z M16.64,197.343
		l5.446,0.423c0.107,0.009,0.186,0.099,0.177,0.207l-0.03,0.395c-0.009,0.108-0.1,0.186-0.207,0.177l-4.859-0.377l-0.061,0.778
		c-0.008,0.107-0.11,0.185-0.219,0.176l-0.383-0.029c-0.107-0.009-0.185-0.099-0.177-0.207l0.106-1.365
		C16.442,197.412,16.532,197.334,16.64,197.343z"/>
	<path d="M21.672,193.503c-0.086-0.105-0.226-0.276-0.459-0.359c-0.092-0.046-0.179-0.139-0.168-0.246l0.038-0.382
		c0.011-0.107,0.115-0.193,0.221-0.159c0.401,0.088,0.75,0.34,1.015,0.716c0.263,0.388,0.393,0.896,0.347,1.362
		c-0.105,1.051-0.828,1.774-1.877,1.887c-1.331,0.158-2.593-0.246-2.651-0.264c-1.006-0.316-1.561-1.168-1.455-2.22
		c0.045-0.466,0.273-0.937,0.607-1.267c0.321-0.317,0.725-0.494,1.136-0.501c0.109-0.013,0.185,0.091,0.173,0.198l-0.037,0.382
		c-0.011,0.107-0.104,0.183-0.214,0.208c-0.233,0.038-0.415,0.176-0.509,0.263c-0.214,0.208-0.351,0.496-0.381,0.795
		c-0.031,0.322-0.002,1.109,0.922,1.406c0.012,0.001,1.158,0.356,2.316,0.23c0.977-0.107,1.16-0.874,1.193-1.196
		C21.918,194.058,21.828,193.748,21.672,193.503z"/>
	<path d="M17.684,187.529c0.282-0.399,0.837-0.847,1.849-0.714l3.712,0.486c0.107,0.014,0.18,0.108,0.166,0.215l-0.052,0.393
		c-0.014,0.107-0.108,0.179-0.215,0.166l-3.713-0.486c-0.5-0.065-0.866,0.056-1.103,0.376c-0.189,0.254-0.241,0.55-0.242,0.562
		l-0.015,0.107c-0.065,0.5,0.142,0.865,0.419,1.24c0.061,0.093,0.195,0.171,0.303,0.185l4.021,0.527
		c0.107,0.014,0.18,0.108,0.165,0.215l-0.051,0.393c-0.015,0.107-0.108,0.18-0.216,0.166l-7.354-0.963
		c-0.106-0.014-0.18-0.108-0.165-0.215l0.052-0.392c0.014-0.108,0.107-0.181,0.203-0.168c0.107,0.014,2.117,0.277,2.117,0.277
		c-0.204-0.378-0.34-0.818-0.268-1.366l0.014-0.108C17.318,188.377,17.388,187.938,17.684,187.529z"/>
	<path d="M21.697,181.629l-0.551,3.364c0.274,0.033,0.564,0.044,0.87,0.033c0.97-0.048,1.202-0.801,1.254-1.12
		c0.045-0.272,0.059-0.879-0.484-1.272c-0.088-0.063-0.153-0.183-0.136-0.29l0.068-0.415c0.017-0.106,0.111-0.164,0.213-0.111
		c0.844,0.418,1.266,1.254,1.109,2.214c-0.17,1.042-0.938,1.72-1.994,1.777c-1.336,0.061-2.572-0.409-2.619-0.429l-0.012-0.002
		c-0.981-0.393-1.481-1.276-1.311-2.319c0.169-1.03,0.925-1.71,1.98-1.768l0.012,0.002c0.038-0.006,0.649-0.027,1.443,0.103
		C21.647,181.414,21.715,181.522,21.697,181.629z M20.381,184.843l0.449-2.748c-0.395-0.04-0.677-0.025-0.701-0.029
		c-0.971,0.06-1.201,0.801-1.253,1.12c-0.053,0.32-0.072,1.107,0.83,1.462C19.73,184.652,19.993,184.756,20.381,184.843z"/>
	<path d="M19.095,177.56c0.021-0.105,0.119-0.173,0.226-0.153l0.377,0.072c0.105,0.02,0.173,0.119,0.164,0.227
		c-0.053,0.539,0.104,0.936,0.338,1.31c0.056,0.096,0.186,0.182,0.292,0.202l3.984,0.755c0.105,0.02,0.173,0.118,0.152,0.225
		l-0.073,0.389c-0.021,0.106-0.119,0.173-0.225,0.153l-5.375-1.019c-0.106-0.02-0.173-0.119-0.153-0.224l0.074-0.389
		c0.021-0.106,0.118-0.173,0.225-0.154l0.2,0.039C19.139,178.618,19.023,178.133,19.095,177.56z"/>
	<path d="M20.227,173.387c0.314-0.375,0.904-0.775,1.9-0.561l3.66,0.789c0.105,0.023,0.17,0.123,0.146,0.228l-0.083,0.387
		c-0.022,0.105-0.122,0.17-0.228,0.147l-3.66-0.789c-0.492-0.106-0.868-0.015-1.129,0.284c-0.211,0.237-0.285,0.528-0.288,0.54
		l-0.022,0.105c-0.106,0.493,0.069,0.875,0.314,1.271c0.053,0.097,0.182,0.186,0.287,0.209l3.964,0.854
		c0.105,0.022,0.17,0.122,0.147,0.228l-0.084,0.388c-0.022,0.105-0.122,0.17-0.229,0.147l-7.248-1.562
		c-0.105-0.023-0.169-0.123-0.146-0.229l0.083-0.387c0.023-0.106,0.122-0.17,0.217-0.15c0.105,0.023,2.087,0.45,2.087,0.45
		c-0.172-0.394-0.271-0.844-0.155-1.384l0.023-0.104C19.794,174.201,19.898,173.77,20.227,173.387z"/>
	<path d="M24.702,167.853l-0.823,3.309c0.271,0.055,0.56,0.09,0.865,0.104c0.97,0.031,1.262-0.7,1.34-1.015
		c0.068-0.268,0.131-0.871-0.379-1.307c-0.082-0.07-0.138-0.195-0.111-0.3l0.102-0.408c0.025-0.104,0.125-0.154,0.221-0.093
		c0.808,0.485,1.16,1.353,0.926,2.296c-0.254,1.024-1.075,1.638-2.132,1.609c-1.337-0.048-2.531-0.617-2.574-0.641l-0.013-0.002
		c-0.945-0.471-1.372-1.393-1.117-2.418c0.252-1.013,1.061-1.629,2.117-1.602l0.012,0.003c0.038-0.003,0.649,0.025,1.43,0.22
		C24.67,167.634,24.729,167.748,24.702,167.853z M23.128,170.949l0.672-2.703c-0.391-0.072-0.673-0.08-0.696-0.086
		c-0.972-0.019-1.263,0.7-1.341,1.015s-0.161,1.099,0.71,1.525C22.496,170.706,22.748,170.831,23.128,170.949z"/>
	<path d="M20.954,164.157l0.37,0.102c0.104,0.028,0.175,0.135,0.146,0.239l-0.104,0.382c-0.028,0.104-0.144,0.159-0.247,0.131
		l-0.371-0.101c-0.104-0.029-0.162-0.132-0.134-0.236l0.104-0.382C20.747,164.188,20.85,164.129,20.954,164.157z M22.458,164.569
		l5.264,1.44c0.104,0.028,0.163,0.132,0.135,0.235l-0.104,0.382c-0.027,0.104-0.131,0.163-0.235,0.135l-4.697-1.284l-0.206,0.751
		c-0.027,0.104-0.143,0.16-0.247,0.132l-0.37-0.102c-0.104-0.028-0.163-0.131-0.135-0.235l0.361-1.319
		C22.251,164.6,22.354,164.541,22.458,164.569z"/>
	<path d="M24.16,160.794l-0.387,1.312l3.063,0.901c0.287,0.085,0.605,0.066,0.879-0.053c0.146-0.07,0.428-0.225,0.523-0.546
		l0.111-0.38c0.031-0.103,0.135-0.161,0.238-0.129l0.369,0.108c0.103,0.03,0.171,0.138,0.141,0.242l-0.111,0.379
		c-0.136,0.461-0.483,0.834-0.97,1.041c-0.43,0.186-0.941,0.223-1.401,0.087l-3.062-0.901l-0.221,0.748
		c-0.03,0.104-0.146,0.157-0.249,0.126l-0.369-0.109c-0.104-0.03-0.16-0.134-0.13-0.238l0.22-0.748l-1.311-0.386
		c-0.104-0.031-0.161-0.135-0.131-0.238l0.111-0.38c0.031-0.103,0.136-0.161,0.238-0.129l1.313,0.386l0.387-1.312
		c0.03-0.104,0.135-0.161,0.238-0.131l0.369,0.109C24.122,160.582,24.19,160.689,24.16,160.794z"/>
</g>
<g>
	<path d="M49.688,103.457c-0.066-0.091-0.073-0.228-0.012-0.316l0.561-0.794c0.063-0.089,0.193-0.128,0.303-0.095l6.496,2.219
		c0.099,0.026,0.259,0.11,0.348,0.172l0.363,0.256c0.088,0.063,0.107,0.179,0.045,0.268l-0.229,0.323
		c-0.062,0.089-0.179,0.109-0.267,0.046l-0.433-0.304l-1.6-0.542l-1.694,2.401l1.047,1.326l0.431,0.304
		c0.089,0.062,0.109,0.18,0.047,0.268l-0.229,0.323c-0.063,0.088-0.18,0.108-0.268,0.046l-0.362-0.255
		c-0.089-0.062-0.222-0.186-0.28-0.271L49.688,103.457z M50.535,103.276l2.528,3.18l1.433-2.029l-3.844-1.317L50.535,103.276z"/>
	<path d="M55.832,98.354c0.441-0.207,1.145-0.32,1.957,0.295l2.981,2.261c0.086,0.065,0.103,0.183,0.036,0.27l-0.238,0.315
		c-0.065,0.086-0.184,0.103-0.27,0.037l-2.98-2.26c-0.401-0.304-0.78-0.381-1.143-0.22c-0.291,0.125-0.482,0.357-0.489,0.366
		l-0.065,0.087c-0.305,0.401-0.307,0.821-0.252,1.284c0.008,0.11,0.086,0.246,0.172,0.31l3.229,2.449
		c0.086,0.065,0.102,0.184,0.037,0.269l-0.239,0.315c-0.065,0.086-0.184,0.102-0.27,0.037l-4.347-3.297
		c-0.087-0.065-0.103-0.183-0.037-0.269l0.239-0.315c0.064-0.086,0.174-0.109,0.26-0.044c0.076,0.058,0.143,0.109,0.143,0.109
		c0.01-0.43,0.11-0.879,0.443-1.319l0.066-0.086C55.094,98.909,55.372,98.563,55.832,98.354z"/>
	<path d="M59.446,94.765l-0.856,1.066l2.489,1.998c0.234,0.187,0.536,0.291,0.833,0.283c0.162-0.008,0.482-0.044,0.692-0.306
		l0.247-0.309c0.068-0.084,0.186-0.097,0.27-0.03l0.301,0.24c0.084,0.068,0.105,0.193,0.038,0.278l-0.247,0.309
		c-0.301,0.374-0.764,0.586-1.293,0.594c-0.468,0.009-0.954-0.151-1.328-0.452l-2.489-1.997l-0.487,0.608
		c-0.068,0.084-0.195,0.089-0.28,0.022l-0.3-0.24c-0.084-0.068-0.096-0.187-0.029-0.271l0.488-0.608l-1.066-0.856
		c-0.084-0.067-0.098-0.186-0.029-0.27l0.247-0.309c0.067-0.084,0.187-0.097,0.271-0.03l1.066,0.855l0.855-1.066
		c0.068-0.084,0.186-0.097,0.27-0.03l0.3,0.24C59.492,94.555,59.514,94.68,59.446,94.765z"/>
	<path d="M67.488,93.085l-0.695,0.811c-0.07,0.082-0.204,0.109-0.302,0.057l-3.565-1.966l2.486,3.224
		c0.066,0.088,0.061,0.225-0.01,0.307l-0.695,0.811c-0.063,0.073-0.196,0.101-0.295,0.048l-4.188-2.31
		c-0.098-0.052-0.242-0.16-0.324-0.23l-0.291-0.25c-0.082-0.07-0.092-0.188-0.021-0.271l0.257-0.301
		c0.071-0.082,0.189-0.09,0.271-0.021l0.383,0.329l3.903,2.161l0.125-0.146l-2.562-3.319c-0.058-0.081-0.051-0.217,0.02-0.3
		l0.539-0.628c0.07-0.083,0.196-0.1,0.285-0.056l3.68,2.017l0.117-0.137l-2.731-3.528l-0.383-0.328
		c-0.082-0.07-0.091-0.188-0.021-0.271l0.258-0.301c0.07-0.082,0.188-0.091,0.271-0.021l0.292,0.25
		c0.082,0.07,0.211,0.197,0.277,0.286l2.921,3.785C67.559,92.875,67.559,93.003,67.488,93.085z"/>
	<path d="M70.592,87.328c0.609,0.859,0.547,1.88-0.17,2.654c-0.717,0.774-1.73,0.915-2.641,0.381
		c-1.146-0.686-1.918-1.759-1.945-1.8l-0.009-0.008c-0.602-0.869-0.53-1.881,0.187-2.655c0.709-0.766,1.713-0.915,2.625-0.381
		l0.008,0.008C68.69,85.551,69.82,86.237,70.592,87.328z M68.248,86.187c-0.842-0.485-1.441,0.005-1.662,0.242
		c-0.22,0.237-0.67,0.883-0.114,1.676c0.019,0.034,0.717,0.991,1.716,1.589c0.834,0.494,1.442-0.004,1.662-0.242
		c0.221-0.237,0.671-0.883,0.115-1.676C69.291,86.826,68.283,86.22,68.248,86.187z"/>
	<path d="M69.91,81.802c0.076-0.078,0.194-0.08,0.271-0.004l0.275,0.268c0.078,0.075,0.08,0.194,0.013,0.28
		c-0.343,0.421-0.43,0.838-0.44,1.28c-0.007,0.11,0.055,0.254,0.133,0.329l2.91,2.828c0.076,0.075,0.078,0.194,0.004,0.271
		l-0.277,0.284c-0.074,0.078-0.193,0.079-0.271,0.004l-3.926-3.816c-0.078-0.076-0.078-0.194-0.004-0.272l0.276-0.284
		c0.075-0.078,0.194-0.079,0.271-0.003l0.146,0.142C69.363,82.709,69.534,82.24,69.91,81.802z"/>
	<path d="M73.15,79.807l-0.975,0.962l2.244,2.273c0.211,0.214,0.498,0.351,0.795,0.379c0.161,0.009,0.484,0.011,0.723-0.225
		l0.282-0.278c0.077-0.077,0.196-0.075,0.272,0.002l0.27,0.273c0.076,0.077,0.084,0.204,0.006,0.28l-0.281,0.278
		c-0.342,0.337-0.827,0.495-1.354,0.441c-0.467-0.045-0.932-0.261-1.27-0.603l-2.242-2.273l-0.556,0.548
		c-0.077,0.076-0.204,0.067-0.28-0.01l-0.27-0.274c-0.076-0.077-0.075-0.196,0.002-0.271l0.555-0.548l-0.961-0.974
		c-0.076-0.077-0.074-0.196,0.002-0.271l0.282-0.279c0.077-0.076,0.195-0.075,0.271,0.002l0.963,0.974l0.974-0.961
		c0.077-0.076,0.196-0.075,0.271,0.002l0.27,0.274C73.22,79.604,73.228,79.731,73.15,79.807z"/>
	<path d="M78.637,77.993l-2.486,2.33c0.196,0.193,0.42,0.379,0.669,0.557c0.797,0.552,1.439,0.098,1.677-0.124
		c0.201-0.189,0.581-0.66,0.39-1.303c-0.03-0.104-0.009-0.238,0.069-0.312l0.307-0.287c0.078-0.074,0.189-0.062,0.236,0.042
		c0.414,0.846,0.239,1.765-0.469,2.429c-0.771,0.722-1.793,0.791-2.664,0.193c-1.096-0.766-1.789-1.892-1.813-1.935l-0.008-0.009
		c-0.54-0.909-0.396-1.915,0.374-2.636c0.762-0.713,1.774-0.791,2.646-0.193l0.009,0.008c0.034,0.018,0.531,0.374,1.081,0.961
		C78.729,77.792,78.715,77.919,78.637,77.993z M75.635,79.737l2.031-1.903c-0.289-0.273-0.521-0.433-0.537-0.451
		c-0.807-0.544-1.44-0.098-1.677,0.124s-0.731,0.833-0.232,1.665C75.236,79.19,75.381,79.432,75.635,79.737z"/>
	<path d="M80.013,72.687c0.476-0.114,1.188-0.084,1.86,0.682l2.47,2.814c0.071,0.081,0.063,0.2-0.018,0.271l-0.298,0.261
		c-0.081,0.071-0.199,0.064-0.271-0.018l-2.469-2.814c-0.333-0.378-0.688-0.529-1.076-0.443c-0.311,0.064-0.544,0.253-0.553,0.261
		l-0.082,0.071c-0.379,0.333-0.465,0.743-0.504,1.208c-0.016,0.109,0.035,0.257,0.105,0.338l2.676,3.048
		c0.071,0.082,0.063,0.2-0.018,0.271l-0.297,0.261c-0.082,0.072-0.201,0.063-0.271-0.017l-3.602-4.104
		c-0.071-0.081-0.063-0.2,0.018-0.271l0.297-0.261c0.082-0.072,0.192-0.073,0.264,0.008c0.063,0.072,0.119,0.135,0.119,0.135
		c0.096-0.419,0.283-0.84,0.699-1.205l0.08-0.071C79.179,73.083,79.521,72.8,80.013,72.687z"/>
</g>
</svg>
